M48
; DRILL file {KiCad 9.0.5} date 2025-12-18T14:36:04+0100
; FORMAT={-:-/ absolute / metric / decimal}
; #@! TF.CreationDate,2025-12-18T14:36:04+01:00
; #@! TF.GenerationSoftware,Kicad,Pcbnew,9.0.5
; #@! TF.FileFunction,Plated,1,2,PTH
FMAT,2
METRIC
; #@! TA.AperFunction,Plated,PTH,ViaDrill
T1C0.300
; #@! TA.AperFunction,Plated,PTH,ComponentDrill
T2C0.750
; #@! TA.AperFunction,Plated,PTH,ComponentDrill
T3C1.000
%
G90
G05
T1
X152.4Y-111.252
X152.4Y-115.824
X152.908Y-91.694
X155.194Y-91.44
X155.956Y-116.586
X156.337Y-85.725
X158.75Y-103.575
T2
X121.663Y-70.954
X121.663Y-136.234
X123.663Y-70.954
X123.663Y-136.234
X125.663Y-70.954
X125.663Y-136.234
X127.663Y-70.954
X127.663Y-136.234
X137.586Y-70.942
X137.614Y-136.234
X139.586Y-70.942
X139.614Y-136.234
X141.586Y-70.942
X141.614Y-136.234
X143.586Y-70.942
X143.614Y-136.234
X152.305Y-101.117
X153.5Y-70.95
X153.515Y-136.234
X154.305Y-101.117
X155.5Y-70.95
X155.515Y-136.234
X157.5Y-70.95
X157.515Y-136.234
X159.5Y-70.95
X159.515Y-136.234
T3
X138.568Y-80.099
X138.568Y-82.639
X138.568Y-85.179
X138.568Y-87.719
X138.568Y-90.259
X138.568Y-92.799
X138.568Y-95.339
X138.568Y-97.879
X138.568Y-100.419
X138.568Y-102.959
X138.568Y-105.499
X138.568Y-108.039
X138.568Y-110.579
X138.568Y-113.119
X138.568Y-115.659
X138.568Y-118.199
X138.568Y-120.739
X138.568Y-123.279
X138.568Y-125.819
X138.568Y-128.359
X140.468Y-78.829
X140.468Y-81.369
X140.468Y-83.909
X140.468Y-86.449
X140.468Y-88.989
X140.468Y-91.529
X140.468Y-94.069
X140.468Y-96.609
X140.468Y-99.149
X140.468Y-101.689
X140.468Y-104.229
X140.468Y-106.769
X140.468Y-109.309
X140.468Y-111.849
X140.468Y-114.389
X140.468Y-116.929
X140.468Y-119.469
X140.468Y-122.009
X140.468Y-124.549
X140.468Y-127.089
X142.368Y-80.099
X142.368Y-82.639
X142.368Y-85.179
X142.368Y-87.719
X142.368Y-90.259
X142.368Y-92.799
X142.368Y-95.339
X142.368Y-97.879
X142.368Y-100.419
X142.368Y-102.959
X142.368Y-105.499
X142.368Y-108.039
X142.368Y-110.579
X142.368Y-113.119
X142.368Y-115.659
X142.368Y-118.199
X142.368Y-120.739
X142.368Y-123.279
X142.368Y-125.819
X142.368Y-128.359
X144.268Y-78.829
X144.268Y-81.369
X144.268Y-83.909
X144.268Y-86.449
X144.268Y-88.989
X144.268Y-91.529
X144.268Y-94.069
X144.268Y-96.609
X144.268Y-99.149
X144.268Y-101.689
X144.268Y-104.229
X144.268Y-106.769
X144.268Y-109.309
X144.268Y-111.849
X144.268Y-114.389
X144.268Y-116.929
X144.268Y-119.469
X144.268Y-122.009
X144.268Y-124.549
X144.268Y-127.089
X161.95Y-99.095
X161.95Y-101.635
X161.95Y-104.175
X161.95Y-106.715
M30
