%TF.GenerationSoftware,KiCad,Pcbnew,9.0.5*%
%TF.CreationDate,2025-12-18T14:34:49+01:00*%
%TF.ProjectId,MINT Robot,4d494e54-2052-46f6-926f-742e6b696361,rev?*%
%TF.SameCoordinates,Original*%
%TF.FileFunction,Copper,L2,Bot*%
%TF.FilePolarity,Positive*%
%FSLAX46Y46*%
G04 Gerber Fmt 4.6, Leading zero omitted, Abs format (unit mm)*
G04 Created by KiCad (PCBNEW 9.0.5) date 2025-12-18 14:34:49*
%MOMM*%
%LPD*%
G01*
G04 APERTURE LIST*
G04 Aperture macros list*
%AMRoundRect*
0 Rectangle with rounded corners*
0 $1 Rounding radius*
0 $2 $3 $4 $5 $6 $7 $8 $9 X,Y pos of 4 corners*
0 Add a 4 corners polygon primitive as box body*
4,1,4,$2,$3,$4,$5,$6,$7,$8,$9,$2,$3,0*
0 Add four circle primitives for the rounded corners*
1,1,$1+$1,$2,$3*
1,1,$1+$1,$4,$5*
1,1,$1+$1,$6,$7*
1,1,$1+$1,$8,$9*
0 Add four rect primitives between the rounded corners*
20,1,$1+$1,$2,$3,$4,$5,0*
20,1,$1+$1,$4,$5,$6,$7,0*
20,1,$1+$1,$6,$7,$8,$9,0*
20,1,$1+$1,$8,$9,$2,$3,0*%
G04 Aperture macros list end*
%TA.AperFunction,ComponentPad*%
%ADD10R,1.500000X1.500000*%
%TD*%
%TA.AperFunction,ComponentPad*%
%ADD11C,1.500000*%
%TD*%
%TA.AperFunction,ComponentPad*%
%ADD12R,1.700000X1.700000*%
%TD*%
%TA.AperFunction,ComponentPad*%
%ADD13C,1.700000*%
%TD*%
%TA.AperFunction,ComponentPad*%
%ADD14RoundRect,0.250000X-0.350000X-0.625000X0.350000X-0.625000X0.350000X0.625000X-0.350000X0.625000X0*%
%TD*%
%TA.AperFunction,ComponentPad*%
%ADD15O,1.200000X1.750000*%
%TD*%
%TA.AperFunction,ComponentPad*%
%ADD16RoundRect,0.250000X0.350000X0.625000X-0.350000X0.625000X-0.350000X-0.625000X0.350000X-0.625000X0*%
%TD*%
%TA.AperFunction,ViaPad*%
%ADD17C,0.600000*%
%TD*%
%TA.AperFunction,Conductor*%
%ADD18C,0.200000*%
%TD*%
G04 APERTURE END LIST*
D10*
%TO.P,J1,1,P22_GND*%
%TO.N,GND*%
X144267700Y-78828900D03*
D11*
%TO.P,J1,2*%
%TO.N,unconnected-(J1-Pad2)*%
X140467700Y-78828900D03*
%TO.P,J1,3,GND*%
%TO.N,GND*%
X142367700Y-80098900D03*
%TO.P,J1,4*%
%TO.N,unconnected-(J1-Pad4)*%
X138567700Y-80098900D03*
%TO.P,J1,5,GND*%
%TO.N,GND*%
X144267700Y-81368900D03*
%TO.P,J1,6*%
%TO.N,unconnected-(J1-Pad6)*%
X140467700Y-81368900D03*
%TO.P,J1,7,GND*%
%TO.N,GND*%
X142367700Y-82638900D03*
%TO.P,J1,8*%
%TO.N,unconnected-(J1-Pad8)*%
X138567700Y-82638900D03*
%TO.P,J1,9,GND*%
%TO.N,GND*%
X144267700Y-83908900D03*
%TO.P,J1,10*%
%TO.N,unconnected-(J1-Pad10)*%
X140467700Y-83908900D03*
%TO.P,J1,11,P21_GND*%
%TO.N,GND*%
X142367700Y-85178900D03*
%TO.P,J1,12*%
%TO.N,unconnected-(J1-Pad12)*%
X138567700Y-85178900D03*
%TO.P,J1,13,P20_SDA*%
%TO.N,Net-(J1-P20_SDA)*%
X144267700Y-86448900D03*
%TO.P,J1,14*%
%TO.N,unconnected-(J1-Pad14)*%
X140467700Y-86448900D03*
%TO.P,J1,15,P19_SCL*%
%TO.N,Net-(J1-P19_SCL)*%
X142367700Y-87718900D03*
%TO.P,J1,16*%
%TO.N,unconnected-(J1-Pad16)*%
X138567700Y-87718900D03*
%TO.P,J1,17,P18_3v3*%
%TO.N,+3.3V*%
X144267700Y-88988900D03*
%TO.P,J1,18*%
%TO.N,unconnected-(J1-Pad18)*%
X140467700Y-88988900D03*
%TO.P,J1,19,3v3*%
%TO.N,+3.3V*%
X142367700Y-90258900D03*
%TO.P,J1,20*%
%TO.N,unconnected-(J1-Pad20)*%
X138567700Y-90258900D03*
%TO.P,J1,21,3v3*%
%TO.N,+3.3V*%
X144267700Y-91528900D03*
%TO.P,J1,22*%
%TO.N,unconnected-(J1-Pad22)*%
X140467700Y-91528900D03*
%TO.P,J1,23,3v3*%
%TO.N,+3.3V*%
X142367700Y-92798900D03*
%TO.P,J1,24*%
%TO.N,unconnected-(J1-Pad24)*%
X138567700Y-92798900D03*
%TO.P,J1,25,3v3*%
%TO.N,+3.3V*%
X144267700Y-94068900D03*
%TO.P,J1,26*%
%TO.N,unconnected-(J1-Pad26)*%
X140467700Y-94068900D03*
%TO.P,J1,27,P17_3v3*%
%TO.N,+3.3V*%
X142367700Y-95338900D03*
%TO.P,J1,28*%
%TO.N,unconnected-(J1-Pad28)*%
X138567700Y-95338900D03*
%TO.P,J1,29,P16*%
%TO.N,Net-(J1-P16)*%
X144267700Y-96608900D03*
%TO.P,J1,30*%
%TO.N,unconnected-(J1-Pad30)*%
X140467700Y-96608900D03*
%TO.P,J1,31,P15_MOSI*%
%TO.N,Net-(J1-P15_MOSI)*%
X142367700Y-97878900D03*
%TO.P,J1,32*%
%TO.N,unconnected-(J1-Pad32)*%
X138567700Y-97878900D03*
%TO.P,J1,33,P14_MISO*%
%TO.N,Net-(J1-P14_MISO)*%
X144267700Y-99148900D03*
%TO.P,J1,34*%
%TO.N,unconnected-(J1-Pad34)*%
X140467700Y-99148900D03*
%TO.P,J1,35,P13_SCK*%
%TO.N,Net-(J1-P13_SCK)*%
X142367700Y-100418900D03*
%TO.P,J1,36*%
%TO.N,unconnected-(J1-Pad36)*%
X138567700Y-100418900D03*
%TO.P,J1,37,P2*%
%TO.N,Net-(J6-Pin_3)*%
X144267700Y-101688900D03*
%TO.P,J1,38*%
%TO.N,unconnected-(J1-Pad38)*%
X140467700Y-101688900D03*
%TO.P,J1,39,P2*%
%TO.N,Net-(J6-Pin_3)*%
X142367700Y-102958900D03*
%TO.P,J1,40*%
%TO.N,unconnected-(J1-Pad40)*%
X138567700Y-102958900D03*
%TO.P,J1,41,P2*%
%TO.N,Net-(J6-Pin_3)*%
X144267700Y-104228900D03*
%TO.P,J1,42*%
%TO.N,unconnected-(J1-Pad42)*%
X140467700Y-104228900D03*
%TO.P,J1,43,P2*%
%TO.N,Net-(J6-Pin_3)*%
X142367700Y-105498900D03*
%TO.P,J1,44*%
%TO.N,unconnected-(J1-Pad44)*%
X138567700Y-105498900D03*
%TO.P,J1,45,P12*%
%TO.N,Net-(J1-P12)*%
X144267700Y-106768900D03*
%TO.P,J1,46*%
%TO.N,unconnected-(J1-Pad46)*%
X140467700Y-106768900D03*
%TO.P,J1,47,P11_Button_B*%
%TO.N,unconnected-(J1-P11_Button_B-Pad47)*%
X142367700Y-108038900D03*
%TO.P,J1,48*%
%TO.N,unconnected-(J1-Pad48)*%
X138567700Y-108038900D03*
%TO.P,J1,49,P10*%
%TO.N,unconnected-(J1-P10-Pad49)*%
X144267700Y-109308900D03*
%TO.P,J1,50*%
%TO.N,unconnected-(J1-Pad50)*%
X140467700Y-109308900D03*
%TO.P,J1,51,P9*%
%TO.N,Net-(J1-P9)*%
X142367700Y-110578900D03*
%TO.P,J1,52*%
%TO.N,unconnected-(J1-Pad52)*%
X138567700Y-110578900D03*
%TO.P,J1,53,P8*%
%TO.N,Net-(J1-P8)*%
X144267700Y-111848900D03*
%TO.P,J1,54*%
%TO.N,unconnected-(J1-Pad54)*%
X140467700Y-111848900D03*
%TO.P,J1,55,P1*%
%TO.N,Net-(J7-Pin_3)*%
X142367700Y-113118900D03*
%TO.P,J1,56*%
%TO.N,unconnected-(J1-Pad56)*%
X138567700Y-113118900D03*
%TO.P,J1,57,P1*%
%TO.N,Net-(J7-Pin_3)*%
X144267700Y-114388900D03*
%TO.P,J1,58*%
%TO.N,unconnected-(J1-Pad58)*%
X140467700Y-114388900D03*
%TO.P,J1,59,P1*%
%TO.N,Net-(J7-Pin_3)*%
X142367700Y-115658900D03*
%TO.P,J1,60*%
%TO.N,unconnected-(J1-Pad60)*%
X138567700Y-115658900D03*
%TO.P,J1,61,P1*%
%TO.N,Net-(J7-Pin_3)*%
X144267700Y-116928900D03*
%TO.P,J1,62*%
%TO.N,unconnected-(J1-Pad62)*%
X140467700Y-116928900D03*
%TO.P,J1,63,P7*%
%TO.N,unconnected-(J1-P7-Pad63)*%
X142367700Y-118198900D03*
%TO.P,J1,64*%
%TO.N,unconnected-(J1-Pad64)*%
X138567700Y-118198900D03*
%TO.P,J1,65,P6*%
%TO.N,unconnected-(J1-P6-Pad65)*%
X144267700Y-119468900D03*
%TO.P,J1,66*%
%TO.N,unconnected-(J1-Pad66)*%
X140467700Y-119468900D03*
%TO.P,J1,67,P5_Button_A*%
%TO.N,unconnected-(J1-P5_Button_A-Pad67)*%
X142367700Y-120738900D03*
%TO.P,J1,68*%
%TO.N,unconnected-(J1-Pad68)*%
X138567700Y-120738900D03*
%TO.P,J1,69,P4*%
%TO.N,unconnected-(J1-P4-Pad69)*%
X144267700Y-122008900D03*
%TO.P,J1,70*%
%TO.N,unconnected-(J1-Pad70)*%
X140467700Y-122008900D03*
%TO.P,J1,71,P0*%
%TO.N,Net-(J8-Pin_3)*%
X142367700Y-123278900D03*
%TO.P,J1,72*%
%TO.N,unconnected-(J1-Pad72)*%
X138567700Y-123278900D03*
%TO.P,J1,73,P0*%
%TO.N,Net-(J8-Pin_3)*%
X144267700Y-124548900D03*
%TO.P,J1,74*%
%TO.N,unconnected-(J1-Pad74)*%
X140467700Y-124548900D03*
%TO.P,J1,75,P0*%
%TO.N,Net-(J8-Pin_3)*%
X142367700Y-125818900D03*
%TO.P,J1,76*%
%TO.N,unconnected-(J1-Pad76)*%
X138567700Y-125818900D03*
%TO.P,J1,77,P0*%
%TO.N,Net-(J8-Pin_3)*%
X144267700Y-127088900D03*
%TO.P,J1,78*%
%TO.N,unconnected-(J1-Pad78)*%
X140467700Y-127088900D03*
%TO.P,J1,79,P3*%
%TO.N,unconnected-(J1-P3-Pad79)*%
X142367700Y-128358900D03*
%TO.P,J1,80*%
%TO.N,unconnected-(J1-Pad80)*%
X138567700Y-128358900D03*
%TD*%
D12*
%TO.P,J9,1,Pin_1*%
%TO.N,GND*%
X161950000Y-99095400D03*
D13*
%TO.P,J9,2,Pin_2*%
%TO.N,+3.3V*%
X161950000Y-101635400D03*
%TO.P,J9,3,Pin_3*%
%TO.N,Net-(J1-P19_SCL)*%
X161950000Y-104175400D03*
%TO.P,J9,4,Pin_4*%
%TO.N,Net-(J1-P20_SDA)*%
X161950000Y-106715400D03*
%TD*%
D14*
%TO.P,J4,1,Pin_1*%
%TO.N,Net-(J4-Pin_1)*%
X152305000Y-101117400D03*
D15*
%TO.P,J4,2,Pin_2*%
%TO.N,GND*%
X154305000Y-101117400D03*
%TD*%
D14*
%TO.P,J8,1,Pin_1*%
%TO.N,+5V*%
X121663200Y-136234000D03*
D15*
%TO.P,J8,2,Pin_2*%
%TO.N,GND*%
X123663200Y-136234000D03*
%TO.P,J8,3,Pin_3*%
%TO.N,Net-(J8-Pin_3)*%
X125663200Y-136234000D03*
%TO.P,J8,4,Pin_4*%
%TO.N,Net-(J1-P12)*%
X127663200Y-136234000D03*
%TD*%
D16*
%TO.P,J3,1,Pin_1*%
%TO.N,+5V*%
X143586200Y-70942200D03*
D15*
%TO.P,J3,2,Pin_2*%
%TO.N,GND*%
X141586200Y-70942200D03*
%TO.P,J3,3,Pin_3*%
%TO.N,Net-(J1-P16)*%
X139586200Y-70942200D03*
%TO.P,J3,4,Pin_4*%
%TO.N,Net-(J1-P15_MOSI)*%
X137586200Y-70942200D03*
%TD*%
D14*
%TO.P,J7,1,Pin_1*%
%TO.N,+5V*%
X137614400Y-136234000D03*
D15*
%TO.P,J7,2,Pin_2*%
%TO.N,GND*%
X139614400Y-136234000D03*
%TO.P,J7,3,Pin_3*%
%TO.N,Net-(J7-Pin_3)*%
X141614400Y-136234000D03*
%TO.P,J7,4,Pin_4*%
%TO.N,Net-(J1-P13_SCK)*%
X143614400Y-136234000D03*
%TD*%
D16*
%TO.P,J2,1,Pin_1*%
%TO.N,+5V*%
X159500000Y-70950000D03*
D15*
%TO.P,J2,2,Pin_2*%
%TO.N,GND*%
X157500000Y-70950000D03*
%TO.P,J2,3,Pin_3*%
%TO.N,Net-(J1-P19_SCL)*%
X155500000Y-70950000D03*
%TO.P,J2,4,Pin_4*%
%TO.N,Net-(J1-P20_SDA)*%
X153500000Y-70950000D03*
%TD*%
D14*
%TO.P,J6,1,Pin_1*%
%TO.N,+5V*%
X153514800Y-136234000D03*
D15*
%TO.P,J6,2,Pin_2*%
%TO.N,GND*%
X155514800Y-136234000D03*
%TO.P,J6,3,Pin_3*%
%TO.N,Net-(J6-Pin_3)*%
X157514800Y-136234000D03*
%TO.P,J6,4,Pin_4*%
%TO.N,Net-(J1-P14_MISO)*%
X159514800Y-136234000D03*
%TD*%
D16*
%TO.P,J5,1,Pin_1*%
%TO.N,+5V*%
X127663200Y-70953800D03*
D15*
%TO.P,J5,2,Pin_2*%
%TO.N,GND*%
X125663200Y-70953800D03*
%TO.P,J5,3,Pin_3*%
%TO.N,Net-(J1-P8)*%
X123663200Y-70953800D03*
%TO.P,J5,4,Pin_4*%
%TO.N,Net-(J1-P9)*%
X121663200Y-70953800D03*
%TD*%
D17*
%TO.N,GND*%
X152908000Y-91694000D03*
X155956000Y-116586000D03*
%TO.N,Net-(J4-Pin_1)*%
X152400000Y-115824000D03*
X152400000Y-111252000D03*
%TO.N,Net-(J1-P20_SDA)*%
X158750000Y-103575400D03*
%TO.N,Net-(U1-FB)*%
X156337000Y-85725000D03*
X155194000Y-91440000D03*
%TD*%
D18*
%TO.N,GND*%
X143637700Y-83908900D02*
X144267700Y-83908900D01*
X142367700Y-85178900D02*
X143637700Y-83908900D01*
X142367700Y-80098900D02*
X143637700Y-78828900D01*
X142367700Y-82638900D02*
X143637700Y-81368900D01*
X143637700Y-81368900D02*
X144267700Y-81368900D01*
X143637700Y-78828900D02*
X144267700Y-78828900D01*
%TO.N,Net-(J4-Pin_1)*%
X152400000Y-115824000D02*
X152400000Y-111252000D01*
%TO.N,+3.3V*%
X144267700Y-91528900D02*
X144267700Y-94068900D01*
X142367700Y-90258900D02*
X142367700Y-92798900D01*
X142367700Y-89280300D02*
X142659100Y-88988900D01*
X142367700Y-90258900D02*
X142367700Y-89280300D01*
X144267700Y-88988900D02*
X144267700Y-91528900D01*
X142659100Y-88988900D02*
X144267700Y-88988900D01*
X142367700Y-92798900D02*
X142367700Y-95338900D01*
%TO.N,Net-(J8-Pin_3)*%
X143471900Y-127088900D02*
X144267700Y-127088900D01*
X142367700Y-125818900D02*
X143129000Y-126580200D01*
X137100900Y-130302000D02*
X141986000Y-130302000D01*
X144267700Y-128020300D02*
X144267700Y-127088900D01*
X143129000Y-126580200D02*
X143129000Y-126746000D01*
X142367700Y-125818900D02*
X142367700Y-123278900D01*
X144267700Y-127088900D02*
X144267700Y-124548900D01*
X125663200Y-136234000D02*
X126839200Y-135058000D01*
X143129000Y-126746000D02*
X143471900Y-127088900D01*
X126839200Y-135058000D02*
X132344900Y-135058000D01*
X132344900Y-135058000D02*
X137100900Y-130302000D01*
X141986000Y-130302000D02*
X144267700Y-128020300D01*
%TO.N,Net-(J1-P8)*%
X138695139Y-106680000D02*
X139835039Y-107819900D01*
X139835039Y-107819900D02*
X140585900Y-107819900D01*
X123663200Y-70953800D02*
X123663200Y-74895200D01*
X127508000Y-97536000D02*
X136652000Y-106680000D01*
X136652000Y-106680000D02*
X138695139Y-106680000D01*
X141986000Y-109220000D02*
X142494000Y-109220000D01*
X123663200Y-74895200D02*
X127508000Y-78740000D01*
X140585900Y-107819900D02*
X141986000Y-109220000D01*
X142494000Y-109220000D02*
X144267700Y-110993700D01*
X127508000Y-78740000D02*
X127508000Y-97536000D01*
X144267700Y-110993700D02*
X144267700Y-111848900D01*
%TO.N,Net-(J1-P13_SCK)*%
X143637000Y-136211400D02*
X143637000Y-130048000D01*
X143832361Y-102739900D02*
X142367700Y-101275239D01*
X143614400Y-136234000D02*
X143637000Y-136211400D01*
X146177000Y-127508000D02*
X146177000Y-104521000D01*
X142367700Y-101275239D02*
X142367700Y-100418900D01*
X143637000Y-130048000D02*
X146177000Y-127508000D01*
X144395900Y-102739900D02*
X143832361Y-102739900D01*
X146177000Y-104521000D02*
X144395900Y-102739900D01*
%TO.N,Net-(J1-P14_MISO)*%
X145796000Y-100677200D02*
X144267700Y-99148900D01*
X145796000Y-102108000D02*
X145796000Y-100677200D01*
X148336000Y-123444000D02*
X148336000Y-104648000D01*
X159514800Y-134622800D02*
X148336000Y-123444000D01*
X159514800Y-136234000D02*
X159514800Y-134622800D01*
X148336000Y-104648000D02*
X145796000Y-102108000D01*
%TO.N,Net-(J1-P19_SCL)*%
X147574000Y-90170000D02*
X145122900Y-87718900D01*
X147574000Y-101600000D02*
X147574000Y-90170000D01*
X161950000Y-104175400D02*
X150149400Y-104175400D01*
X150149400Y-104175400D02*
X147574000Y-101600000D01*
X145122900Y-87718900D02*
X142367700Y-87718900D01*
%TO.N,Net-(J6-Pin_3)*%
X143637700Y-104228900D02*
X144267700Y-104228900D01*
X147320000Y-123952000D02*
X147320000Y-104741200D01*
X157514800Y-136234000D02*
X157514800Y-134146800D01*
X157514800Y-134146800D02*
X147320000Y-123952000D01*
X142367700Y-102958900D02*
X143637700Y-104228900D01*
X147320000Y-104741200D02*
X144267700Y-101688900D01*
X142367700Y-105498900D02*
X143637700Y-104228900D01*
%TO.N,Net-(J1-P12)*%
X131736000Y-136234000D02*
X137160000Y-130810000D01*
X145318700Y-107819900D02*
X144267700Y-106768900D01*
X145318700Y-127799200D02*
X145318700Y-107819900D01*
X142307900Y-130810000D02*
X145318700Y-127799200D01*
X137160000Y-130810000D02*
X142307900Y-130810000D01*
X127663200Y-136234000D02*
X131736000Y-136234000D01*
%TO.N,Net-(J1-P20_SDA)*%
X144267700Y-86448900D02*
X145122900Y-86448900D01*
X150565400Y-103575400D02*
X158750000Y-103575400D01*
X145122900Y-86448900D02*
X148336000Y-89662000D01*
X148336000Y-101346000D02*
X150565400Y-103575400D01*
X148336000Y-89662000D02*
X148336000Y-101346000D01*
%TO.N,Net-(J1-P9)*%
X139446000Y-109773539D02*
X139446000Y-109728000D01*
X136144000Y-106739100D02*
X125984000Y-96579100D01*
X140251361Y-110578900D02*
X139446000Y-109773539D01*
X138938000Y-109220000D02*
X136906000Y-109220000D01*
X142367700Y-110578900D02*
X140251361Y-110578900D01*
X125984000Y-96579100D02*
X125984000Y-78232000D01*
X121663200Y-73911200D02*
X121663200Y-70953800D01*
X136906000Y-109220000D02*
X136144000Y-108458000D01*
X125984000Y-78232000D02*
X121663200Y-73911200D01*
X136144000Y-108458000D02*
X136144000Y-106739100D01*
X139446000Y-109728000D02*
X138938000Y-109220000D01*
%TO.N,Net-(U1-FB)*%
X156337000Y-85725000D02*
X156337000Y-90297000D01*
X156337000Y-90297000D02*
X155194000Y-91440000D01*
%TD*%
%TA.AperFunction,Conductor*%
%TO.N,GND*%
G36*
X163501139Y-64705985D02*
G01*
X163546894Y-64758789D01*
X163558100Y-64810300D01*
X163558100Y-142377500D01*
X163538415Y-142444539D01*
X163485611Y-142490294D01*
X163434100Y-142501500D01*
X119826700Y-142501500D01*
X119759661Y-142481815D01*
X119713906Y-142429011D01*
X119702700Y-142377500D01*
X119702700Y-70592189D01*
X120562700Y-70592189D01*
X120562700Y-71315411D01*
X120564219Y-71325000D01*
X120589195Y-71482697D01*
X120589798Y-71486501D01*
X120643327Y-71651245D01*
X120721968Y-71805588D01*
X120823786Y-71945728D01*
X120946272Y-72068214D01*
X121011588Y-72115668D01*
X121054251Y-72170995D01*
X121062700Y-72215984D01*
X121062700Y-73824530D01*
X121062699Y-73824548D01*
X121062699Y-73990254D01*
X121062698Y-73990254D01*
X121103623Y-74142985D01*
X121132558Y-74193100D01*
X121132559Y-74193104D01*
X121132560Y-74193104D01*
X121182679Y-74279914D01*
X121182681Y-74279917D01*
X121301549Y-74398785D01*
X121301555Y-74398790D01*
X125347181Y-78444416D01*
X125380666Y-78505739D01*
X125383500Y-78532097D01*
X125383500Y-96492430D01*
X125383499Y-96492448D01*
X125383499Y-96658154D01*
X125383498Y-96658154D01*
X125424423Y-96810885D01*
X125453358Y-96861000D01*
X125453359Y-96861004D01*
X125453360Y-96861004D01*
X125503479Y-96947814D01*
X125503481Y-96947817D01*
X125622349Y-97066685D01*
X125622355Y-97066690D01*
X135507181Y-106951516D01*
X135540666Y-107012839D01*
X135543500Y-107039197D01*
X135543500Y-108371330D01*
X135543499Y-108371348D01*
X135543499Y-108537054D01*
X135543498Y-108537054D01*
X135584422Y-108689783D01*
X135587034Y-108694306D01*
X135587037Y-108694313D01*
X135663475Y-108826709D01*
X135663481Y-108826717D01*
X135782349Y-108945585D01*
X135782354Y-108945589D01*
X136537284Y-109700520D01*
X136537286Y-109700521D01*
X136537290Y-109700524D01*
X136674209Y-109779573D01*
X136674216Y-109779577D01*
X136826943Y-109820501D01*
X136826945Y-109820501D01*
X136992654Y-109820501D01*
X136992670Y-109820500D01*
X137348305Y-109820500D01*
X137415344Y-109840185D01*
X137461099Y-109892989D01*
X137471043Y-109962147D01*
X137458790Y-110000795D01*
X137408817Y-110098870D01*
X137347990Y-110286073D01*
X137317200Y-110480477D01*
X137317200Y-110677322D01*
X137347990Y-110871726D01*
X137408817Y-111058929D01*
X137467020Y-111173158D01*
X137498176Y-111234305D01*
X137613872Y-111393546D01*
X137753054Y-111532728D01*
X137912295Y-111648424D01*
X138035692Y-111711297D01*
X138088913Y-111738415D01*
X138139709Y-111786389D01*
X138156504Y-111854210D01*
X138133967Y-111920345D01*
X138088913Y-111959385D01*
X137912294Y-112049376D01*
X137821441Y-112115385D01*
X137753054Y-112165072D01*
X137753052Y-112165074D01*
X137753051Y-112165074D01*
X137613874Y-112304251D01*
X137613874Y-112304252D01*
X137613872Y-112304254D01*
X137564185Y-112372641D01*
X137498176Y-112463494D01*
X137408817Y-112638870D01*
X137347990Y-112826073D01*
X137317200Y-113020477D01*
X137317200Y-113217322D01*
X137347990Y-113411726D01*
X137408817Y-113598929D01*
X137498176Y-113774305D01*
X137613872Y-113933546D01*
X137753054Y-114072728D01*
X137912295Y-114188424D01*
X138035692Y-114251297D01*
X138088913Y-114278415D01*
X138139709Y-114326389D01*
X138156504Y-114394210D01*
X138133967Y-114460345D01*
X138088913Y-114499385D01*
X137912294Y-114589376D01*
X137821441Y-114655385D01*
X137753054Y-114705072D01*
X137753052Y-114705074D01*
X137753051Y-114705074D01*
X137613874Y-114844251D01*
X137613874Y-114844252D01*
X137613872Y-114844254D01*
X137564185Y-114912641D01*
X137498176Y-115003494D01*
X137408817Y-115178870D01*
X137347990Y-115366073D01*
X137317200Y-115560477D01*
X137317200Y-115757322D01*
X137347990Y-115951726D01*
X137408817Y-116138929D01*
X137498176Y-116314305D01*
X137613872Y-116473546D01*
X137753054Y-116612728D01*
X137912295Y-116728424D01*
X138035692Y-116791297D01*
X138088913Y-116818415D01*
X138139709Y-116866389D01*
X138156504Y-116934210D01*
X138133967Y-117000345D01*
X138088913Y-117039385D01*
X137912294Y-117129376D01*
X137821441Y-117195385D01*
X137753054Y-117245072D01*
X137753052Y-117245074D01*
X137753051Y-117245074D01*
X137613874Y-117384251D01*
X137613874Y-117384252D01*
X137613872Y-117384254D01*
X137564185Y-117452641D01*
X137498176Y-117543494D01*
X137408817Y-117718870D01*
X137347990Y-117906073D01*
X137317200Y-118100477D01*
X137317200Y-118297322D01*
X137347990Y-118491726D01*
X137408817Y-118678929D01*
X137498176Y-118854305D01*
X137613872Y-119013546D01*
X137753054Y-119152728D01*
X137912295Y-119268424D01*
X138035692Y-119331297D01*
X138088913Y-119358415D01*
X138139709Y-119406389D01*
X138156504Y-119474210D01*
X138133967Y-119540345D01*
X138088913Y-119579385D01*
X137912294Y-119669376D01*
X137821441Y-119735385D01*
X137753054Y-119785072D01*
X137753052Y-119785074D01*
X137753051Y-119785074D01*
X137613874Y-119924251D01*
X137613874Y-119924252D01*
X137613872Y-119924254D01*
X137564185Y-119992641D01*
X137498176Y-120083494D01*
X137408817Y-120258870D01*
X137347990Y-120446073D01*
X137317200Y-120640477D01*
X137317200Y-120837322D01*
X137347990Y-121031726D01*
X137408817Y-121218929D01*
X137498176Y-121394305D01*
X137613872Y-121553546D01*
X137753054Y-121692728D01*
X137912295Y-121808424D01*
X138035692Y-121871297D01*
X138088913Y-121898415D01*
X138139709Y-121946389D01*
X138156504Y-122014210D01*
X138133967Y-122080345D01*
X138088913Y-122119385D01*
X137912294Y-122209376D01*
X137821441Y-122275385D01*
X137753054Y-122325072D01*
X137753052Y-122325074D01*
X137753051Y-122325074D01*
X137613874Y-122464251D01*
X137613874Y-122464252D01*
X137613872Y-122464254D01*
X137564185Y-122532641D01*
X137498176Y-122623494D01*
X137408817Y-122798870D01*
X137347990Y-122986073D01*
X137317200Y-123180477D01*
X137317200Y-123377322D01*
X137347990Y-123571726D01*
X137408817Y-123758929D01*
X137498176Y-123934305D01*
X137613872Y-124093546D01*
X137753054Y-124232728D01*
X137912295Y-124348424D01*
X138035692Y-124411297D01*
X138088913Y-124438415D01*
X138139709Y-124486389D01*
X138156504Y-124554210D01*
X138133967Y-124620345D01*
X138088913Y-124659385D01*
X137912294Y-124749376D01*
X137821441Y-124815385D01*
X137753054Y-124865072D01*
X137753052Y-124865074D01*
X137753051Y-124865074D01*
X137613874Y-125004251D01*
X137613874Y-125004252D01*
X137613872Y-125004254D01*
X137564185Y-125072641D01*
X137498176Y-125163494D01*
X137408817Y-125338870D01*
X137347990Y-125526073D01*
X137317200Y-125720477D01*
X137317200Y-125917322D01*
X137347990Y-126111726D01*
X137408817Y-126298929D01*
X137498176Y-126474305D01*
X137613872Y-126633546D01*
X137753054Y-126772728D01*
X137912295Y-126888424D01*
X138035692Y-126951297D01*
X138088913Y-126978415D01*
X138139709Y-127026389D01*
X138156504Y-127094210D01*
X138133967Y-127160345D01*
X138088913Y-127199385D01*
X137912294Y-127289376D01*
X137821441Y-127355385D01*
X137753054Y-127405072D01*
X137753052Y-127405074D01*
X137753051Y-127405074D01*
X137613874Y-127544251D01*
X137613874Y-127544252D01*
X137613872Y-127544254D01*
X137582774Y-127587057D01*
X137498176Y-127703494D01*
X137408817Y-127878870D01*
X137347990Y-128066073D01*
X137317200Y-128260477D01*
X137317200Y-128457322D01*
X137347990Y-128651726D01*
X137408817Y-128838929D01*
X137498176Y-129014305D01*
X137613872Y-129173546D01*
X137753054Y-129312728D01*
X137872484Y-129399500D01*
X137912296Y-129428425D01*
X137988034Y-129467015D01*
X138038831Y-129514989D01*
X138055626Y-129582810D01*
X138033089Y-129648945D01*
X137978374Y-129692397D01*
X137931740Y-129701500D01*
X137187570Y-129701500D01*
X137187554Y-129701499D01*
X137179958Y-129701499D01*
X137021843Y-129701499D01*
X136945479Y-129721961D01*
X136869114Y-129742423D01*
X136869109Y-129742426D01*
X136732190Y-129821475D01*
X136732182Y-129821481D01*
X132132484Y-134421181D01*
X132071161Y-134454666D01*
X132044803Y-134457500D01*
X126918257Y-134457500D01*
X126760143Y-134457500D01*
X126607415Y-134498423D01*
X126607414Y-134498423D01*
X126607412Y-134498424D01*
X126607409Y-134498425D01*
X126557296Y-134527359D01*
X126557295Y-134527360D01*
X126528919Y-134543743D01*
X126470485Y-134577479D01*
X126470482Y-134577481D01*
X126358678Y-134689286D01*
X126156880Y-134891083D01*
X126095557Y-134924568D01*
X126030881Y-134921333D01*
X125920898Y-134885597D01*
X125772812Y-134862143D01*
X125749811Y-134858500D01*
X125576589Y-134858500D01*
X125553588Y-134862143D01*
X125405502Y-134885597D01*
X125240752Y-134939128D01*
X125086411Y-135017768D01*
X125040101Y-135051415D01*
X124946272Y-135119586D01*
X124946270Y-135119588D01*
X124946269Y-135119588D01*
X124823785Y-135242072D01*
X124763207Y-135325450D01*
X124707877Y-135368115D01*
X124638263Y-135374093D01*
X124576469Y-135341486D01*
X124562571Y-135325447D01*
X124502236Y-135242401D01*
X124379802Y-135119967D01*
X124239724Y-135018195D01*
X124085457Y-134939591D01*
X123920789Y-134886087D01*
X123920781Y-134886085D01*
X123913200Y-134884884D01*
X123913200Y-135953670D01*
X123893455Y-135933925D01*
X123807945Y-135884556D01*
X123712570Y-135859000D01*
X123613830Y-135859000D01*
X123518455Y-135884556D01*
X123432945Y-135933925D01*
X123413200Y-135953670D01*
X123413200Y-134884884D01*
X123413199Y-134884884D01*
X123405618Y-134886085D01*
X123405610Y-134886087D01*
X123240942Y-134939591D01*
X123086675Y-135018195D01*
X122946601Y-135119964D01*
X122838999Y-135227566D01*
X122777676Y-135261050D01*
X122707984Y-135256066D01*
X122652051Y-135214194D01*
X122645785Y-135204988D01*
X122605912Y-135140344D01*
X122481856Y-135016288D01*
X122356759Y-134939128D01*
X122332536Y-134924187D01*
X122332531Y-134924185D01*
X122323924Y-134921333D01*
X122165997Y-134869001D01*
X122165995Y-134869000D01*
X122063210Y-134858500D01*
X121263198Y-134858500D01*
X121263180Y-134858501D01*
X121160403Y-134869000D01*
X121160400Y-134869001D01*
X120993868Y-134924185D01*
X120993863Y-134924187D01*
X120844542Y-135016289D01*
X120720489Y-135140342D01*
X120628387Y-135289663D01*
X120628385Y-135289668D01*
X120602532Y-135367689D01*
X120573201Y-135456203D01*
X120573201Y-135456204D01*
X120573200Y-135456204D01*
X120562700Y-135558983D01*
X120562700Y-136909001D01*
X120562701Y-136909018D01*
X120573200Y-137011796D01*
X120573201Y-137011799D01*
X120611213Y-137126510D01*
X120628386Y-137178334D01*
X120720488Y-137327656D01*
X120844544Y-137451712D01*
X120993866Y-137543814D01*
X121160403Y-137598999D01*
X121263191Y-137609500D01*
X122063208Y-137609499D01*
X122063216Y-137609498D01*
X122063219Y-137609498D01*
X122119502Y-137603748D01*
X122165997Y-137598999D01*
X122332534Y-137543814D01*
X122481856Y-137451712D01*
X122605912Y-137327656D01*
X122645781Y-137263016D01*
X122697725Y-137216294D01*
X122766688Y-137205071D01*
X122830770Y-137232914D01*
X122838999Y-137240434D01*
X122946597Y-137348032D01*
X123086675Y-137449804D01*
X123240944Y-137528408D01*
X123405615Y-137581914D01*
X123405614Y-137581914D01*
X123413199Y-137583115D01*
X123413200Y-137583114D01*
X123413200Y-136514330D01*
X123432945Y-136534075D01*
X123518455Y-136583444D01*
X123613830Y-136609000D01*
X123712570Y-136609000D01*
X123807945Y-136583444D01*
X123893455Y-136534075D01*
X123913200Y-136514330D01*
X123913200Y-137583115D01*
X123920784Y-137581914D01*
X124085455Y-137528408D01*
X124239724Y-137449804D01*
X124379802Y-137348032D01*
X124502236Y-137225598D01*
X124562571Y-137142552D01*
X124617900Y-137099886D01*
X124687513Y-137093905D01*
X124749309Y-137126510D01*
X124763208Y-137142550D01*
X124763518Y-137142976D01*
X124823786Y-137225928D01*
X124946272Y-137348414D01*
X125086412Y-137450232D01*
X125240755Y-137528873D01*
X125405499Y-137582402D01*
X125576589Y-137609500D01*
X125576590Y-137609500D01*
X125749810Y-137609500D01*
X125749811Y-137609500D01*
X125920901Y-137582402D01*
X126085645Y-137528873D01*
X126239988Y-137450232D01*
X126380128Y-137348414D01*
X126502614Y-137225928D01*
X126562882Y-137142975D01*
X126618212Y-137100311D01*
X126687826Y-137094332D01*
X126749621Y-137126938D01*
X126763515Y-137142973D01*
X126823786Y-137225928D01*
X126946272Y-137348414D01*
X127086412Y-137450232D01*
X127240755Y-137528873D01*
X127405499Y-137582402D01*
X127576589Y-137609500D01*
X127576590Y-137609500D01*
X127749810Y-137609500D01*
X127749811Y-137609500D01*
X127920901Y-137582402D01*
X128085645Y-137528873D01*
X128239988Y-137450232D01*
X128380128Y-137348414D01*
X128502614Y-137225928D01*
X128604432Y-137085788D01*
X128683073Y-136931445D01*
X128686732Y-136920181D01*
X128726168Y-136862508D01*
X128790526Y-136835308D01*
X128804663Y-136834500D01*
X131649331Y-136834500D01*
X131649347Y-136834501D01*
X131656943Y-136834501D01*
X131815054Y-136834501D01*
X131815057Y-136834501D01*
X131967785Y-136793577D01*
X132017904Y-136764639D01*
X132104716Y-136714520D01*
X132216520Y-136602716D01*
X132216520Y-136602714D01*
X132226728Y-136592507D01*
X132226729Y-136592504D01*
X137372416Y-131446819D01*
X137433739Y-131413334D01*
X137460097Y-131410500D01*
X142221231Y-131410500D01*
X142221247Y-131410501D01*
X142228843Y-131410501D01*
X142386954Y-131410501D01*
X142386957Y-131410501D01*
X142539685Y-131369577D01*
X142589804Y-131340639D01*
X142676616Y-131290520D01*
X142788420Y-131178716D01*
X142788421Y-131178713D01*
X142824822Y-131142311D01*
X142886144Y-131108829D01*
X142955836Y-131113815D01*
X143011769Y-131155687D01*
X143036184Y-131221152D01*
X143036500Y-131229996D01*
X143036500Y-134955394D01*
X143016815Y-135022433D01*
X142985386Y-135055711D01*
X142897478Y-135119581D01*
X142897469Y-135119588D01*
X142774988Y-135242069D01*
X142774981Y-135242078D01*
X142714717Y-135325023D01*
X142659387Y-135367689D01*
X142589774Y-135373667D01*
X142527979Y-135341061D01*
X142514083Y-135325023D01*
X142453818Y-135242078D01*
X142453814Y-135242072D01*
X142331328Y-135119586D01*
X142191188Y-135017768D01*
X142036845Y-134939127D01*
X141872101Y-134885598D01*
X141872099Y-134885597D01*
X141872098Y-134885597D01*
X141724012Y-134862143D01*
X141701011Y-134858500D01*
X141527789Y-134858500D01*
X141504788Y-134862143D01*
X141356702Y-134885597D01*
X141191952Y-134939128D01*
X141037611Y-135017768D01*
X140991301Y-135051415D01*
X140897472Y-135119586D01*
X140897470Y-135119588D01*
X140897469Y-135119588D01*
X140774985Y-135242072D01*
X140714407Y-135325450D01*
X140659077Y-135368115D01*
X140589463Y-135374093D01*
X140527669Y-135341486D01*
X140513771Y-135325447D01*
X140453436Y-135242401D01*
X140331002Y-135119967D01*
X140190924Y-135018195D01*
X140036657Y-134939591D01*
X139871989Y-134886087D01*
X139871981Y-134886085D01*
X139864400Y-134884884D01*
X139864400Y-135953670D01*
X139844655Y-135933925D01*
X139759145Y-135884556D01*
X139663770Y-135859000D01*
X139565030Y-135859000D01*
X139469655Y-135884556D01*
X139384145Y-135933925D01*
X139364400Y-135953670D01*
X139364400Y-134884884D01*
X139364399Y-134884884D01*
X139356818Y-134886085D01*
X139356810Y-134886087D01*
X139192142Y-134939591D01*
X139037875Y-135018195D01*
X138897801Y-135119964D01*
X138790199Y-135227566D01*
X138728876Y-135261050D01*
X138659184Y-135256066D01*
X138603251Y-135214194D01*
X138596985Y-135204988D01*
X138557112Y-135140344D01*
X138433056Y-135016288D01*
X138307959Y-134939128D01*
X138283736Y-134924187D01*
X138283731Y-134924185D01*
X138275124Y-134921333D01*
X138117197Y-134869001D01*
X138117195Y-134869000D01*
X138014410Y-134858500D01*
X137214398Y-134858500D01*
X137214380Y-134858501D01*
X137111603Y-134869000D01*
X137111600Y-134869001D01*
X136945068Y-134924185D01*
X136945063Y-134924187D01*
X136795742Y-135016289D01*
X136671689Y-135140342D01*
X136579587Y-135289663D01*
X136579585Y-135289668D01*
X136553732Y-135367689D01*
X136524401Y-135456203D01*
X136524401Y-135456204D01*
X136524400Y-135456204D01*
X136513900Y-135558983D01*
X136513900Y-136909001D01*
X136513901Y-136909018D01*
X136524400Y-137011796D01*
X136524401Y-137011799D01*
X136562413Y-137126510D01*
X136579586Y-137178334D01*
X136671688Y-137327656D01*
X136795744Y-137451712D01*
X136945066Y-137543814D01*
X137111603Y-137598999D01*
X137214391Y-137609500D01*
X138014408Y-137609499D01*
X138014416Y-137609498D01*
X138014419Y-137609498D01*
X138070702Y-137603748D01*
X138117197Y-137598999D01*
X138283734Y-137543814D01*
X138433056Y-137451712D01*
X138557112Y-137327656D01*
X138596981Y-137263016D01*
X138648925Y-137216294D01*
X138717888Y-137205071D01*
X138781970Y-137232914D01*
X138790199Y-137240434D01*
X138897797Y-137348032D01*
X139037875Y-137449804D01*
X139192144Y-137528408D01*
X139356815Y-137581914D01*
X139356814Y-137581914D01*
X139364399Y-137583115D01*
X139364400Y-137583114D01*
X139364400Y-136514330D01*
X139384145Y-136534075D01*
X139469655Y-136583444D01*
X139565030Y-136609000D01*
X139663770Y-136609000D01*
X139759145Y-136583444D01*
X139844655Y-136534075D01*
X139864400Y-136514330D01*
X139864400Y-137583115D01*
X139871984Y-137581914D01*
X140036655Y-137528408D01*
X140190924Y-137449804D01*
X140331002Y-137348032D01*
X140453436Y-137225598D01*
X140513771Y-137142552D01*
X140569100Y-137099886D01*
X140638713Y-137093905D01*
X140700509Y-137126510D01*
X140714408Y-137142550D01*
X140714718Y-137142976D01*
X140774986Y-137225928D01*
X140897472Y-137348414D01*
X141037612Y-137450232D01*
X141191955Y-137528873D01*
X141356699Y-137582402D01*
X141527789Y-137609500D01*
X141527790Y-137609500D01*
X141701010Y-137609500D01*
X141701011Y-137609500D01*
X141872101Y-137582402D01*
X142036845Y-137528873D01*
X142191188Y-137450232D01*
X142331328Y-137348414D01*
X142453814Y-137225928D01*
X142514082Y-137142975D01*
X142569412Y-137100311D01*
X142639026Y-137094332D01*
X142700821Y-137126938D01*
X142714715Y-137142973D01*
X142774986Y-137225928D01*
X142897472Y-137348414D01*
X143037612Y-137450232D01*
X143191955Y-137528873D01*
X143356699Y-137582402D01*
X143527789Y-137609500D01*
X143527790Y-137609500D01*
X143701010Y-137609500D01*
X143701011Y-137609500D01*
X143872101Y-137582402D01*
X144036845Y-137528873D01*
X144191188Y-137450232D01*
X144331328Y-137348414D01*
X144453814Y-137225928D01*
X144555632Y-137085788D01*
X144634273Y-136931445D01*
X144687802Y-136766701D01*
X144714900Y-136595611D01*
X144714900Y-135872389D01*
X144687802Y-135701299D01*
X144634273Y-135536555D01*
X144555632Y-135382212D01*
X144453814Y-135242072D01*
X144331328Y-135119586D01*
X144288613Y-135088551D01*
X144245948Y-135033220D01*
X144237500Y-134988234D01*
X144237500Y-130348096D01*
X144257185Y-130281057D01*
X144273814Y-130260420D01*
X146535506Y-127998727D01*
X146535511Y-127998724D01*
X146545714Y-127988520D01*
X146545716Y-127988520D01*
X146657520Y-127876716D01*
X146736577Y-127739784D01*
X146777500Y-127587057D01*
X146777500Y-124558097D01*
X146797185Y-124491058D01*
X146849989Y-124445303D01*
X146919147Y-124435359D01*
X146982703Y-124464384D01*
X146989181Y-124470416D01*
X156877981Y-134359216D01*
X156911466Y-134420539D01*
X156914300Y-134446897D01*
X156914300Y-134971814D01*
X156894615Y-135038853D01*
X156863187Y-135072131D01*
X156797872Y-135119585D01*
X156675385Y-135242072D01*
X156614807Y-135325450D01*
X156559477Y-135368115D01*
X156489863Y-135374093D01*
X156428069Y-135341486D01*
X156414171Y-135325447D01*
X156353836Y-135242401D01*
X156231402Y-135119967D01*
X156091324Y-135018195D01*
X155937057Y-134939591D01*
X155772389Y-134886087D01*
X155772381Y-134886085D01*
X155764800Y-134884884D01*
X155764800Y-135953670D01*
X155745055Y-135933925D01*
X155659545Y-135884556D01*
X155564170Y-135859000D01*
X155465430Y-135859000D01*
X155370055Y-135884556D01*
X155284545Y-135933925D01*
X155264800Y-135953670D01*
X155264800Y-134884884D01*
X155264799Y-134884884D01*
X155257218Y-134886085D01*
X155257210Y-134886087D01*
X155092542Y-134939591D01*
X154938275Y-135018195D01*
X154798201Y-135119964D01*
X154690599Y-135227566D01*
X154629276Y-135261050D01*
X154559584Y-135256066D01*
X154503651Y-135214194D01*
X154497385Y-135204988D01*
X154457512Y-135140344D01*
X154333456Y-135016288D01*
X154208359Y-134939128D01*
X154184136Y-134924187D01*
X154184131Y-134924185D01*
X154175524Y-134921333D01*
X154017597Y-134869001D01*
X154017595Y-134869000D01*
X153914810Y-134858500D01*
X153114798Y-134858500D01*
X153114780Y-134858501D01*
X153012003Y-134869000D01*
X153012000Y-134869001D01*
X152845468Y-134924185D01*
X152845463Y-134924187D01*
X152696142Y-135016289D01*
X152572089Y-135140342D01*
X152479987Y-135289663D01*
X152479985Y-135289668D01*
X152454132Y-135367689D01*
X152424801Y-135456203D01*
X152424801Y-135456204D01*
X152424800Y-135456204D01*
X152414300Y-135558983D01*
X152414300Y-136909001D01*
X152414301Y-136909018D01*
X152424800Y-137011796D01*
X152424801Y-137011799D01*
X152462813Y-137126510D01*
X152479986Y-137178334D01*
X152572088Y-137327656D01*
X152696144Y-137451712D01*
X152845466Y-137543814D01*
X153012003Y-137598999D01*
X153114791Y-137609500D01*
X153914808Y-137609499D01*
X153914816Y-137609498D01*
X153914819Y-137609498D01*
X153971102Y-137603748D01*
X154017597Y-137598999D01*
X154184134Y-137543814D01*
X154333456Y-137451712D01*
X154457512Y-137327656D01*
X154497381Y-137263016D01*
X154549325Y-137216294D01*
X154618288Y-137205071D01*
X154682370Y-137232914D01*
X154690599Y-137240434D01*
X154798197Y-137348032D01*
X154938275Y-137449804D01*
X155092544Y-137528408D01*
X155257215Y-137581914D01*
X155257214Y-137581914D01*
X155264799Y-137583115D01*
X155264800Y-137583114D01*
X155264800Y-136514330D01*
X155284545Y-136534075D01*
X155370055Y-136583444D01*
X155465430Y-136609000D01*
X155564170Y-136609000D01*
X155659545Y-136583444D01*
X155745055Y-136534075D01*
X155764800Y-136514330D01*
X155764800Y-137583115D01*
X155772384Y-137581914D01*
X155937055Y-137528408D01*
X156091324Y-137449804D01*
X156231402Y-137348032D01*
X156353836Y-137225598D01*
X156414171Y-137142552D01*
X156469500Y-137099886D01*
X156539113Y-137093905D01*
X156600909Y-137126510D01*
X156614808Y-137142550D01*
X156615118Y-137142976D01*
X156675386Y-137225928D01*
X156797872Y-137348414D01*
X156938012Y-137450232D01*
X157092355Y-137528873D01*
X157257099Y-137582402D01*
X157428189Y-137609500D01*
X157428190Y-137609500D01*
X157601410Y-137609500D01*
X157601411Y-137609500D01*
X157772501Y-137582402D01*
X157937245Y-137528873D01*
X158091588Y-137450232D01*
X158231728Y-137348414D01*
X158354214Y-137225928D01*
X158414482Y-137142975D01*
X158469812Y-137100311D01*
X158539426Y-137094332D01*
X158601221Y-137126938D01*
X158615115Y-137142973D01*
X158675386Y-137225928D01*
X158797872Y-137348414D01*
X158938012Y-137450232D01*
X159092355Y-137528873D01*
X159257099Y-137582402D01*
X159428189Y-137609500D01*
X159428190Y-137609500D01*
X159601410Y-137609500D01*
X159601411Y-137609500D01*
X159772501Y-137582402D01*
X159937245Y-137528873D01*
X160091588Y-137450232D01*
X160231728Y-137348414D01*
X160354214Y-137225928D01*
X160456032Y-137085788D01*
X160534673Y-136931445D01*
X160588202Y-136766701D01*
X160615300Y-136595611D01*
X160615300Y-135872389D01*
X160588202Y-135701299D01*
X160534673Y-135536555D01*
X160456032Y-135382212D01*
X160354214Y-135242072D01*
X160231728Y-135119586D01*
X160166413Y-135072131D01*
X160123748Y-135016801D01*
X160115300Y-134971814D01*
X160115300Y-134711860D01*
X160115301Y-134711847D01*
X160115301Y-134543744D01*
X160110911Y-134527359D01*
X160074377Y-134391016D01*
X160063339Y-134371897D01*
X159995324Y-134254090D01*
X159995318Y-134254082D01*
X148972819Y-123231583D01*
X148939334Y-123170260D01*
X148936500Y-123143902D01*
X148936500Y-111173153D01*
X151599500Y-111173153D01*
X151599500Y-111330846D01*
X151630261Y-111485489D01*
X151630264Y-111485501D01*
X151690602Y-111631172D01*
X151690609Y-111631185D01*
X151778602Y-111762874D01*
X151799480Y-111829551D01*
X151799500Y-111831765D01*
X151799500Y-115244234D01*
X151779815Y-115311273D01*
X151778602Y-115313125D01*
X151690609Y-115444814D01*
X151690602Y-115444827D01*
X151630264Y-115590498D01*
X151630261Y-115590510D01*
X151599500Y-115745153D01*
X151599500Y-115902846D01*
X151630261Y-116057489D01*
X151630264Y-116057501D01*
X151690602Y-116203172D01*
X151690609Y-116203185D01*
X151778210Y-116334288D01*
X151778213Y-116334292D01*
X151889707Y-116445786D01*
X151889711Y-116445789D01*
X152020814Y-116533390D01*
X152020827Y-116533397D01*
X152166498Y-116593735D01*
X152166503Y-116593737D01*
X152261977Y-116612728D01*
X152321153Y-116624499D01*
X152321156Y-116624500D01*
X152321158Y-116624500D01*
X152478844Y-116624500D01*
X152478845Y-116624499D01*
X152633497Y-116593737D01*
X152779179Y-116533394D01*
X152910289Y-116445789D01*
X153021789Y-116334289D01*
X153109394Y-116203179D01*
X153169737Y-116057497D01*
X153200500Y-115902842D01*
X153200500Y-115745158D01*
X153200500Y-115745155D01*
X153200499Y-115745153D01*
X153179463Y-115639400D01*
X153169737Y-115590503D01*
X153169735Y-115590498D01*
X153109397Y-115444827D01*
X153109390Y-115444814D01*
X153021398Y-115313125D01*
X153000520Y-115246447D01*
X153000500Y-115244234D01*
X153000500Y-111831765D01*
X153020185Y-111764726D01*
X153021398Y-111762874D01*
X153029678Y-111750483D01*
X153109394Y-111631179D01*
X153169737Y-111485497D01*
X153200500Y-111330842D01*
X153200500Y-111173158D01*
X153200500Y-111173155D01*
X153200499Y-111173153D01*
X153169738Y-111018510D01*
X153169737Y-111018503D01*
X153169735Y-111018498D01*
X153109397Y-110872827D01*
X153109390Y-110872814D01*
X153021789Y-110741711D01*
X153021786Y-110741707D01*
X152910292Y-110630213D01*
X152910288Y-110630210D01*
X152779185Y-110542609D01*
X152779172Y-110542602D01*
X152633501Y-110482264D01*
X152633489Y-110482261D01*
X152478845Y-110451500D01*
X152478842Y-110451500D01*
X152321158Y-110451500D01*
X152321155Y-110451500D01*
X152166510Y-110482261D01*
X152166498Y-110482264D01*
X152020827Y-110542602D01*
X152020814Y-110542609D01*
X151889711Y-110630210D01*
X151889707Y-110630213D01*
X151778213Y-110741707D01*
X151778210Y-110741711D01*
X151690609Y-110872814D01*
X151690602Y-110872827D01*
X151630264Y-111018498D01*
X151630261Y-111018510D01*
X151599500Y-111173153D01*
X148936500Y-111173153D01*
X148936500Y-104568944D01*
X148936500Y-104568943D01*
X148927900Y-104536849D01*
X148920550Y-104509416D01*
X148895577Y-104416216D01*
X148895573Y-104416209D01*
X148816524Y-104279290D01*
X148816521Y-104279286D01*
X148816520Y-104279284D01*
X148704716Y-104167480D01*
X148704715Y-104167479D01*
X148700385Y-104163149D01*
X148700374Y-104163139D01*
X146432819Y-101895584D01*
X146399334Y-101834261D01*
X146396500Y-101807903D01*
X146396500Y-100766260D01*
X146396501Y-100766247D01*
X146396501Y-100598144D01*
X146396501Y-100598143D01*
X146355577Y-100445416D01*
X146329010Y-100399400D01*
X146276524Y-100308490D01*
X146276518Y-100308482D01*
X145521468Y-99553433D01*
X145487983Y-99492110D01*
X145486676Y-99446354D01*
X145518200Y-99247322D01*
X145518200Y-99050477D01*
X145487409Y-98856073D01*
X145426582Y-98668870D01*
X145379443Y-98576355D01*
X145337224Y-98493495D01*
X145221528Y-98334254D01*
X145082346Y-98195072D01*
X145002725Y-98137224D01*
X144923103Y-98079374D01*
X144746487Y-97989385D01*
X144695690Y-97941411D01*
X144678895Y-97873590D01*
X144701432Y-97807455D01*
X144746487Y-97768415D01*
X144923103Y-97678425D01*
X144923102Y-97678425D01*
X144923105Y-97678424D01*
X145082346Y-97562728D01*
X145221528Y-97423546D01*
X145337224Y-97264305D01*
X145426584Y-97088925D01*
X145487409Y-96901726D01*
X145516289Y-96719385D01*
X145518200Y-96707322D01*
X145518200Y-96510477D01*
X145487409Y-96316073D01*
X145426582Y-96128870D01*
X145379443Y-96036355D01*
X145337224Y-95953495D01*
X145221528Y-95794254D01*
X145082346Y-95655072D01*
X145002725Y-95597224D01*
X144923103Y-95539374D01*
X144746487Y-95449385D01*
X144695690Y-95401411D01*
X144678895Y-95333590D01*
X144701432Y-95267455D01*
X144746487Y-95228415D01*
X144923103Y-95138425D01*
X144923102Y-95138425D01*
X144923105Y-95138424D01*
X145082346Y-95022728D01*
X145221528Y-94883546D01*
X145337224Y-94724305D01*
X145426584Y-94548925D01*
X145487409Y-94361726D01*
X145516289Y-94179385D01*
X145518200Y-94167322D01*
X145518200Y-93970477D01*
X145487409Y-93776073D01*
X145426582Y-93588870D01*
X145379443Y-93496355D01*
X145337224Y-93413495D01*
X145221528Y-93254254D01*
X145082346Y-93115072D01*
X145034689Y-93080447D01*
X144919314Y-92996621D01*
X144915973Y-92992288D01*
X144910997Y-92990016D01*
X144894864Y-92964913D01*
X144876649Y-92941290D01*
X144875396Y-92934619D01*
X144873223Y-92931238D01*
X144868200Y-92896303D01*
X144868200Y-92701496D01*
X144887885Y-92634457D01*
X144919314Y-92601178D01*
X144923103Y-92598424D01*
X144923105Y-92598424D01*
X145082346Y-92482728D01*
X145221528Y-92343546D01*
X145337224Y-92184305D01*
X145426584Y-92008925D01*
X145487409Y-91821726D01*
X145506467Y-91701400D01*
X145518200Y-91627322D01*
X145518200Y-91430477D01*
X145487409Y-91236073D01*
X145430467Y-91060827D01*
X145426584Y-91048875D01*
X145426582Y-91048872D01*
X145426582Y-91048870D01*
X145365865Y-90929707D01*
X145337224Y-90873495D01*
X145221528Y-90714254D01*
X145082346Y-90575072D01*
X145008592Y-90521486D01*
X144919314Y-90456621D01*
X144915973Y-90452288D01*
X144910997Y-90450016D01*
X144894864Y-90424913D01*
X144876649Y-90401290D01*
X144875396Y-90394619D01*
X144873223Y-90391238D01*
X144868200Y-90356303D01*
X144868200Y-90161496D01*
X144887885Y-90094457D01*
X144919314Y-90061178D01*
X144923103Y-90058424D01*
X144923105Y-90058424D01*
X145082346Y-89942728D01*
X145221528Y-89803546D01*
X145337224Y-89644305D01*
X145426584Y-89468925D01*
X145487409Y-89281726D01*
X145497068Y-89220741D01*
X145526997Y-89157606D01*
X145586308Y-89120674D01*
X145656171Y-89121672D01*
X145707222Y-89152457D01*
X146937181Y-90382416D01*
X146970666Y-90443739D01*
X146973500Y-90470097D01*
X146973500Y-101513330D01*
X146973499Y-101513348D01*
X146973499Y-101679054D01*
X146973498Y-101679054D01*
X147014424Y-101831789D01*
X147014425Y-101831790D01*
X147039799Y-101875738D01*
X147039800Y-101875740D01*
X147093475Y-101968709D01*
X147093481Y-101968717D01*
X147212349Y-102087585D01*
X147212354Y-102087589D01*
X149780684Y-104655920D01*
X149780686Y-104655921D01*
X149780690Y-104655924D01*
X149872492Y-104708925D01*
X149917616Y-104734977D01*
X150070343Y-104775901D01*
X150070345Y-104775901D01*
X150236054Y-104775901D01*
X150236070Y-104775900D01*
X160664281Y-104775900D01*
X160731320Y-104795585D01*
X160774765Y-104843605D01*
X160794947Y-104883214D01*
X160794948Y-104883215D01*
X160919890Y-105055186D01*
X161070213Y-105205509D01*
X161242182Y-105330450D01*
X161250946Y-105334916D01*
X161301742Y-105382891D01*
X161318536Y-105450712D01*
X161295998Y-105516847D01*
X161250946Y-105555884D01*
X161242182Y-105560349D01*
X161070213Y-105685290D01*
X160919890Y-105835613D01*
X160794951Y-106007579D01*
X160698444Y-106196985D01*
X160632753Y-106399160D01*
X160599500Y-106609113D01*
X160599500Y-106821686D01*
X160629775Y-107012839D01*
X160632754Y-107031643D01*
X160635208Y-107039197D01*
X160698444Y-107233814D01*
X160794951Y-107423220D01*
X160919890Y-107595186D01*
X161070213Y-107745509D01*
X161242179Y-107870448D01*
X161242181Y-107870449D01*
X161242184Y-107870451D01*
X161431588Y-107966957D01*
X161633757Y-108032646D01*
X161843713Y-108065900D01*
X161843714Y-108065900D01*
X162056286Y-108065900D01*
X162056287Y-108065900D01*
X162266243Y-108032646D01*
X162468412Y-107966957D01*
X162657816Y-107870451D01*
X162701898Y-107838424D01*
X162829786Y-107745509D01*
X162829788Y-107745506D01*
X162829792Y-107745504D01*
X162980104Y-107595192D01*
X162980106Y-107595188D01*
X162980109Y-107595186D01*
X163105048Y-107423220D01*
X163105047Y-107423220D01*
X163105051Y-107423216D01*
X163201557Y-107233812D01*
X163267246Y-107031643D01*
X163300500Y-106821687D01*
X163300500Y-106609113D01*
X163267246Y-106399157D01*
X163201557Y-106196988D01*
X163105051Y-106007584D01*
X163105049Y-106007581D01*
X163105048Y-106007579D01*
X162980109Y-105835613D01*
X162829786Y-105685290D01*
X162657820Y-105560351D01*
X162657115Y-105559991D01*
X162649054Y-105555885D01*
X162598259Y-105507912D01*
X162581463Y-105440092D01*
X162603999Y-105373956D01*
X162649054Y-105334915D01*
X162657816Y-105330451D01*
X162701898Y-105298424D01*
X162829786Y-105205509D01*
X162829788Y-105205506D01*
X162829792Y-105205504D01*
X162980104Y-105055192D01*
X162980106Y-105055188D01*
X162980109Y-105055186D01*
X163089086Y-104905189D01*
X163105051Y-104883216D01*
X163201557Y-104693812D01*
X163267246Y-104491643D01*
X163300500Y-104281687D01*
X163300500Y-104069113D01*
X163267246Y-103859157D01*
X163201557Y-103656988D01*
X163105051Y-103467584D01*
X163105049Y-103467581D01*
X163105048Y-103467579D01*
X162980109Y-103295613D01*
X162829786Y-103145290D01*
X162657820Y-103020351D01*
X162657115Y-103019991D01*
X162649054Y-103015885D01*
X162598259Y-102967912D01*
X162581463Y-102900092D01*
X162603999Y-102833956D01*
X162649054Y-102794915D01*
X162657816Y-102790451D01*
X162701898Y-102758424D01*
X162829786Y-102665509D01*
X162829788Y-102665506D01*
X162829792Y-102665504D01*
X162980104Y-102515192D01*
X162980106Y-102515188D01*
X162980109Y-102515186D01*
X163105048Y-102343220D01*
X163105047Y-102343220D01*
X163105051Y-102343216D01*
X163201557Y-102153812D01*
X163267246Y-101951643D01*
X163300500Y-101741687D01*
X163300500Y-101529113D01*
X163267246Y-101319157D01*
X163201557Y-101116988D01*
X163105051Y-100927584D01*
X163105049Y-100927581D01*
X163105048Y-100927579D01*
X162980109Y-100755613D01*
X162866181Y-100641685D01*
X162832696Y-100580362D01*
X162837680Y-100510670D01*
X162879552Y-100454737D01*
X162910529Y-100437822D01*
X163042086Y-100388754D01*
X163042093Y-100388750D01*
X163157187Y-100302590D01*
X163157190Y-100302587D01*
X163243350Y-100187493D01*
X163243354Y-100187486D01*
X163293596Y-100052779D01*
X163293598Y-100052772D01*
X163299999Y-99993244D01*
X163300000Y-99993227D01*
X163300000Y-99345400D01*
X162383012Y-99345400D01*
X162415925Y-99288393D01*
X162450000Y-99161226D01*
X162450000Y-99029574D01*
X162415925Y-98902407D01*
X162383012Y-98845400D01*
X163300000Y-98845400D01*
X163300000Y-98197572D01*
X163299999Y-98197555D01*
X163293598Y-98138027D01*
X163293596Y-98138020D01*
X163243354Y-98003313D01*
X163243350Y-98003306D01*
X163157190Y-97888212D01*
X163157187Y-97888209D01*
X163042093Y-97802049D01*
X163042086Y-97802045D01*
X162907379Y-97751803D01*
X162907372Y-97751801D01*
X162847844Y-97745400D01*
X162200000Y-97745400D01*
X162200000Y-98662388D01*
X162142993Y-98629475D01*
X162015826Y-98595400D01*
X161884174Y-98595400D01*
X161757007Y-98629475D01*
X161700000Y-98662388D01*
X161700000Y-97745400D01*
X161052155Y-97745400D01*
X160992627Y-97751801D01*
X160992620Y-97751803D01*
X160857913Y-97802045D01*
X160857906Y-97802049D01*
X160742812Y-97888209D01*
X160742809Y-97888212D01*
X160656649Y-98003306D01*
X160656645Y-98003313D01*
X160606403Y-98138020D01*
X160606401Y-98138027D01*
X160600000Y-98197555D01*
X160600000Y-98845400D01*
X161516988Y-98845400D01*
X161484075Y-98902407D01*
X161450000Y-99029574D01*
X161450000Y-99161226D01*
X161484075Y-99288393D01*
X161516988Y-99345400D01*
X160600000Y-99345400D01*
X160600000Y-99993244D01*
X160606401Y-100052772D01*
X160606403Y-100052779D01*
X160656645Y-100187486D01*
X160656649Y-100187493D01*
X160742809Y-100302587D01*
X160742812Y-100302590D01*
X160857906Y-100388750D01*
X160857913Y-100388754D01*
X160989470Y-100437822D01*
X161045404Y-100479693D01*
X161069821Y-100545158D01*
X161054969Y-100613431D01*
X161033819Y-100641685D01*
X160919889Y-100755615D01*
X160794951Y-100927579D01*
X160698444Y-101116985D01*
X160632753Y-101319160D01*
X160605315Y-101492400D01*
X160599500Y-101529113D01*
X160599500Y-101741687D01*
X160607534Y-101792409D01*
X160623813Y-101895196D01*
X160632754Y-101951643D01*
X160696041Y-102146420D01*
X160698444Y-102153814D01*
X160794951Y-102343220D01*
X160919890Y-102515186D01*
X161070213Y-102665509D01*
X161242182Y-102790450D01*
X161250946Y-102794916D01*
X161301742Y-102842891D01*
X161318536Y-102910712D01*
X161295998Y-102976847D01*
X161250946Y-103015884D01*
X161242182Y-103020349D01*
X161070213Y-103145290D01*
X160919890Y-103295613D01*
X160794948Y-103467584D01*
X160794947Y-103467585D01*
X160774765Y-103507195D01*
X160726791Y-103557991D01*
X160664281Y-103574900D01*
X159667848Y-103574900D01*
X159600809Y-103555215D01*
X159555054Y-103502411D01*
X159546231Y-103475092D01*
X159519738Y-103341908D01*
X159519737Y-103341907D01*
X159519737Y-103341903D01*
X159482385Y-103251726D01*
X159459397Y-103196227D01*
X159459390Y-103196214D01*
X159371789Y-103065111D01*
X159371786Y-103065107D01*
X159260292Y-102953613D01*
X159260288Y-102953610D01*
X159129185Y-102866009D01*
X159129172Y-102866002D01*
X158983501Y-102805664D01*
X158983489Y-102805661D01*
X158828845Y-102774900D01*
X158828842Y-102774900D01*
X158671158Y-102774900D01*
X158671155Y-102774900D01*
X158516510Y-102805661D01*
X158516498Y-102805664D01*
X158370827Y-102866002D01*
X158370814Y-102866009D01*
X158239125Y-102954002D01*
X158172447Y-102974880D01*
X158170234Y-102974900D01*
X150865498Y-102974900D01*
X150798459Y-102955215D01*
X150777817Y-102938581D01*
X148972819Y-101133583D01*
X148939334Y-101072260D01*
X148936500Y-101045902D01*
X148936500Y-100442383D01*
X151204500Y-100442383D01*
X151204500Y-101792401D01*
X151204501Y-101792418D01*
X151215000Y-101895196D01*
X151215001Y-101895199D01*
X151270185Y-102061731D01*
X151270186Y-102061734D01*
X151362288Y-102211056D01*
X151486344Y-102335112D01*
X151635666Y-102427214D01*
X151802203Y-102482399D01*
X151904991Y-102492900D01*
X152705008Y-102492899D01*
X152705016Y-102492898D01*
X152705019Y-102492898D01*
X152761302Y-102487148D01*
X152807797Y-102482399D01*
X152974334Y-102427214D01*
X153123656Y-102335112D01*
X153247712Y-102211056D01*
X153287581Y-102146416D01*
X153339525Y-102099694D01*
X153408488Y-102088471D01*
X153472570Y-102116314D01*
X153480799Y-102123834D01*
X153588397Y-102231432D01*
X153728475Y-102333204D01*
X153882744Y-102411808D01*
X154047415Y-102465314D01*
X154047414Y-102465314D01*
X154054999Y-102466515D01*
X154055000Y-102466514D01*
X154055000Y-101397730D01*
X154074745Y-101417475D01*
X154160255Y-101466844D01*
X154255630Y-101492400D01*
X154354370Y-101492400D01*
X154449745Y-101466844D01*
X154535255Y-101417475D01*
X154555000Y-101397730D01*
X154555000Y-102466515D01*
X154562584Y-102465314D01*
X154727255Y-102411808D01*
X154881524Y-102333204D01*
X155021602Y-102231432D01*
X155144032Y-102109002D01*
X155245804Y-101968924D01*
X155324408Y-101814657D01*
X155377914Y-101649984D01*
X155405000Y-101478971D01*
X155405000Y-101367400D01*
X154585330Y-101367400D01*
X154605075Y-101347655D01*
X154654444Y-101262145D01*
X154680000Y-101166770D01*
X154680000Y-101068030D01*
X154654444Y-100972655D01*
X154605075Y-100887145D01*
X154585330Y-100867400D01*
X155405000Y-100867400D01*
X155405000Y-100755828D01*
X155377914Y-100584815D01*
X155324408Y-100420142D01*
X155245804Y-100265875D01*
X155144032Y-100125797D01*
X155021602Y-100003367D01*
X154881524Y-99901595D01*
X154727257Y-99822991D01*
X154562589Y-99769487D01*
X154562581Y-99769485D01*
X154555000Y-99768284D01*
X154555000Y-100837070D01*
X154535255Y-100817325D01*
X154449745Y-100767956D01*
X154354370Y-100742400D01*
X154255630Y-100742400D01*
X154160255Y-100767956D01*
X154074745Y-100817325D01*
X154055000Y-100837070D01*
X154055000Y-99768284D01*
X154054999Y-99768284D01*
X154047418Y-99769485D01*
X154047410Y-99769487D01*
X153882742Y-99822991D01*
X153728475Y-99901595D01*
X153588401Y-100003364D01*
X153480799Y-100110966D01*
X153419476Y-100144450D01*
X153349784Y-100139466D01*
X153293851Y-100097594D01*
X153287585Y-100088388D01*
X153247712Y-100023744D01*
X153123656Y-99899688D01*
X152974334Y-99807586D01*
X152807797Y-99752401D01*
X152807795Y-99752400D01*
X152705010Y-99741900D01*
X151904998Y-99741900D01*
X151904980Y-99741901D01*
X151802203Y-99752400D01*
X151802200Y-99752401D01*
X151635668Y-99807585D01*
X151635663Y-99807587D01*
X151486342Y-99899689D01*
X151362289Y-100023742D01*
X151270187Y-100173063D01*
X151270185Y-100173068D01*
X151265405Y-100187493D01*
X151215001Y-100339603D01*
X151215001Y-100339604D01*
X151215000Y-100339604D01*
X151204500Y-100442383D01*
X148936500Y-100442383D01*
X148936500Y-91361153D01*
X154393500Y-91361153D01*
X154393500Y-91518846D01*
X154424261Y-91673489D01*
X154424264Y-91673501D01*
X154484602Y-91819172D01*
X154484609Y-91819185D01*
X154572210Y-91950288D01*
X154572213Y-91950292D01*
X154683707Y-92061786D01*
X154683711Y-92061789D01*
X154814814Y-92149390D01*
X154814827Y-92149397D01*
X154899104Y-92184305D01*
X154960503Y-92209737D01*
X155115153Y-92240499D01*
X155115156Y-92240500D01*
X155115158Y-92240500D01*
X155272844Y-92240500D01*
X155272845Y-92240499D01*
X155427497Y-92209737D01*
X155573179Y-92149394D01*
X155704289Y-92061789D01*
X155815789Y-91950289D01*
X155903394Y-91819179D01*
X155963737Y-91673497D01*
X155991443Y-91534210D01*
X155994638Y-91518150D01*
X156027023Y-91456239D01*
X156028521Y-91454713D01*
X156695506Y-90787727D01*
X156695511Y-90787724D01*
X156705714Y-90777520D01*
X156705716Y-90777520D01*
X156817520Y-90665716D01*
X156869852Y-90575074D01*
X156869853Y-90575073D01*
X156869854Y-90575071D01*
X156896574Y-90528790D01*
X156896573Y-90528790D01*
X156896577Y-90528785D01*
X156937500Y-90376057D01*
X156937500Y-90217943D01*
X156937500Y-86304765D01*
X156957185Y-86237726D01*
X156958398Y-86235874D01*
X157046390Y-86104185D01*
X157046390Y-86104184D01*
X157046394Y-86104179D01*
X157106737Y-85958497D01*
X157137500Y-85803842D01*
X157137500Y-85646158D01*
X157137500Y-85646155D01*
X157137499Y-85646153D01*
X157135132Y-85634252D01*
X157106737Y-85491503D01*
X157060293Y-85379376D01*
X157046397Y-85345827D01*
X157046390Y-85345814D01*
X156958789Y-85214711D01*
X156958786Y-85214707D01*
X156847292Y-85103213D01*
X156847288Y-85103210D01*
X156716185Y-85015609D01*
X156716172Y-85015602D01*
X156570501Y-84955264D01*
X156570489Y-84955261D01*
X156415845Y-84924500D01*
X156415842Y-84924500D01*
X156258158Y-84924500D01*
X156258155Y-84924500D01*
X156103510Y-84955261D01*
X156103498Y-84955264D01*
X155957827Y-85015602D01*
X155957814Y-85015609D01*
X155826711Y-85103210D01*
X155826707Y-85103213D01*
X155715213Y-85214707D01*
X155715210Y-85214711D01*
X155627609Y-85345814D01*
X155627602Y-85345827D01*
X155567264Y-85491498D01*
X155567261Y-85491510D01*
X155536500Y-85646153D01*
X155536500Y-85803846D01*
X155567261Y-85958489D01*
X155567264Y-85958501D01*
X155627602Y-86104172D01*
X155627609Y-86104185D01*
X155715602Y-86235874D01*
X155736480Y-86302551D01*
X155736500Y-86304765D01*
X155736500Y-89996903D01*
X155716815Y-90063942D01*
X155700181Y-90084584D01*
X155179339Y-90605425D01*
X155118016Y-90638910D01*
X155115850Y-90639361D01*
X154960508Y-90670261D01*
X154960498Y-90670264D01*
X154814827Y-90730602D01*
X154814814Y-90730609D01*
X154683711Y-90818210D01*
X154683707Y-90818213D01*
X154572213Y-90929707D01*
X154572210Y-90929711D01*
X154484609Y-91060814D01*
X154484602Y-91060827D01*
X154424264Y-91206498D01*
X154424261Y-91206510D01*
X154393500Y-91361153D01*
X148936500Y-91361153D01*
X148936500Y-89751060D01*
X148936501Y-89751047D01*
X148936501Y-89582944D01*
X148905949Y-89468925D01*
X148895577Y-89430216D01*
X148823326Y-89305072D01*
X148816524Y-89293290D01*
X148816518Y-89293282D01*
X145610490Y-86087255D01*
X145610488Y-86087252D01*
X145491618Y-85968382D01*
X145491616Y-85968380D01*
X145430931Y-85933343D01*
X145382717Y-85882776D01*
X145382448Y-85882252D01*
X145369903Y-85857631D01*
X145337224Y-85793495D01*
X145221528Y-85634254D01*
X145082346Y-85495072D01*
X144923105Y-85379376D01*
X144747725Y-85290016D01*
X144747724Y-85290015D01*
X144745935Y-85289104D01*
X144695139Y-85241130D01*
X144678344Y-85173309D01*
X144700881Y-85107174D01*
X144745936Y-85068134D01*
X144922841Y-84977997D01*
X144957825Y-84952578D01*
X144957826Y-84952578D01*
X144397109Y-84391862D01*
X144460693Y-84374825D01*
X144574707Y-84308999D01*
X144667799Y-84215907D01*
X144733625Y-84101893D01*
X144750662Y-84038310D01*
X145311378Y-84599026D01*
X145311378Y-84599025D01*
X145336795Y-84564043D01*
X145426118Y-84388735D01*
X145486921Y-84201605D01*
X145517700Y-84007282D01*
X145517700Y-83810517D01*
X145486921Y-83616194D01*
X145426118Y-83429064D01*
X145336796Y-83253758D01*
X145311378Y-83218773D01*
X145311377Y-83218773D01*
X144750662Y-83779489D01*
X144733625Y-83715907D01*
X144667799Y-83601893D01*
X144574707Y-83508801D01*
X144460693Y-83442975D01*
X144397108Y-83425937D01*
X144957825Y-82865220D01*
X144957825Y-82865219D01*
X144922845Y-82839805D01*
X144745384Y-82749385D01*
X144694588Y-82701411D01*
X144677793Y-82633590D01*
X144700330Y-82567455D01*
X144745385Y-82528415D01*
X144922841Y-82437997D01*
X144957825Y-82412578D01*
X144957826Y-82412578D01*
X144397109Y-81851862D01*
X144460693Y-81834825D01*
X144574707Y-81768999D01*
X144667799Y-81675907D01*
X144733625Y-81561893D01*
X144750662Y-81498310D01*
X145311378Y-82059026D01*
X145311378Y-82059025D01*
X145336795Y-82024043D01*
X145426118Y-81848735D01*
X145486921Y-81661605D01*
X145517700Y-81467282D01*
X145517700Y-81270517D01*
X145486921Y-81076194D01*
X145426118Y-80889064D01*
X145336796Y-80713758D01*
X145311378Y-80678773D01*
X145311377Y-80678773D01*
X144750662Y-81239489D01*
X144733625Y-81175907D01*
X144667799Y-81061893D01*
X144574707Y-80968801D01*
X144460693Y-80902975D01*
X144397108Y-80885937D01*
X144957825Y-80325220D01*
X144957825Y-80325219D01*
X144927543Y-80303219D01*
X144884877Y-80247890D01*
X144878896Y-80178277D01*
X144911501Y-80116481D01*
X144972339Y-80082123D01*
X145000427Y-80078900D01*
X145065528Y-80078900D01*
X145065544Y-80078899D01*
X145125072Y-80072498D01*
X145125079Y-80072496D01*
X145259786Y-80022254D01*
X145259793Y-80022250D01*
X145374887Y-79936090D01*
X145374890Y-79936087D01*
X145461050Y-79820993D01*
X145461054Y-79820986D01*
X145511296Y-79686279D01*
X145511298Y-79686272D01*
X145517699Y-79626744D01*
X145517700Y-79626727D01*
X145517700Y-79078900D01*
X144700712Y-79078900D01*
X144733625Y-79021893D01*
X144767700Y-78894726D01*
X144767700Y-78763074D01*
X144733625Y-78635907D01*
X144700712Y-78578900D01*
X145517700Y-78578900D01*
X145517700Y-78031072D01*
X145517699Y-78031055D01*
X145511298Y-77971527D01*
X145511296Y-77971520D01*
X145461054Y-77836813D01*
X145461050Y-77836806D01*
X145374890Y-77721712D01*
X145374887Y-77721709D01*
X145259793Y-77635549D01*
X145259786Y-77635545D01*
X145125079Y-77585303D01*
X145125072Y-77585301D01*
X145065544Y-77578900D01*
X144517700Y-77578900D01*
X144517700Y-78395888D01*
X144460693Y-78362975D01*
X144333526Y-78328900D01*
X144201874Y-78328900D01*
X144074707Y-78362975D01*
X144017700Y-78395888D01*
X144017700Y-77578900D01*
X143469855Y-77578900D01*
X143410327Y-77585301D01*
X143410320Y-77585303D01*
X143275613Y-77635545D01*
X143275606Y-77635549D01*
X143160512Y-77721709D01*
X143160509Y-77721712D01*
X143074349Y-77836806D01*
X143074345Y-77836813D01*
X143024103Y-77971520D01*
X143024101Y-77971527D01*
X143017700Y-78031055D01*
X143017700Y-78578900D01*
X143834688Y-78578900D01*
X143801775Y-78635907D01*
X143767700Y-78763074D01*
X143767700Y-78894726D01*
X143801775Y-79021893D01*
X143834688Y-79078900D01*
X143011700Y-79078900D01*
X142944661Y-79059215D01*
X142898906Y-79006411D01*
X142889739Y-78964273D01*
X142887699Y-78960944D01*
X142847531Y-78940479D01*
X142847528Y-78940478D01*
X142660405Y-78879678D01*
X142466082Y-78848900D01*
X142269318Y-78848900D01*
X142074994Y-78879678D01*
X141883233Y-78941986D01*
X141882746Y-78940488D01*
X141820161Y-78947205D01*
X141757687Y-78915918D01*
X141722046Y-78855823D01*
X141718200Y-78825179D01*
X141718200Y-78730477D01*
X141687409Y-78536073D01*
X141626582Y-78348870D01*
X141537223Y-78173494D01*
X141484289Y-78100637D01*
X141421528Y-78014254D01*
X141282346Y-77875072D01*
X141123105Y-77759376D01*
X140947729Y-77670017D01*
X140760526Y-77609190D01*
X140566122Y-77578400D01*
X140566117Y-77578400D01*
X140369283Y-77578400D01*
X140369278Y-77578400D01*
X140174873Y-77609190D01*
X139987670Y-77670017D01*
X139812294Y-77759376D01*
X139721441Y-77825385D01*
X139653054Y-77875072D01*
X139653052Y-77875074D01*
X139653051Y-77875074D01*
X139513874Y-78014251D01*
X139513874Y-78014252D01*
X139513872Y-78014254D01*
X139501653Y-78031072D01*
X139398176Y-78173494D01*
X139308817Y-78348870D01*
X139247990Y-78536073D01*
X139217200Y-78730477D01*
X139217200Y-78824635D01*
X139197515Y-78891674D01*
X139144711Y-78937429D01*
X139075553Y-78947373D01*
X139052509Y-78941055D01*
X139052358Y-78941522D01*
X139047728Y-78940017D01*
X139047725Y-78940016D01*
X138977625Y-78917239D01*
X138860526Y-78879190D01*
X138666122Y-78848400D01*
X138666117Y-78848400D01*
X138469283Y-78848400D01*
X138469278Y-78848400D01*
X138274873Y-78879190D01*
X138087670Y-78940017D01*
X137912294Y-79029376D01*
X137871225Y-79059215D01*
X137753054Y-79145072D01*
X137753052Y-79145074D01*
X137753051Y-79145074D01*
X137613874Y-79284251D01*
X137613874Y-79284252D01*
X137613872Y-79284254D01*
X137581435Y-79328900D01*
X137498176Y-79443494D01*
X137408817Y-79618870D01*
X137347990Y-79806073D01*
X137317200Y-80000477D01*
X137317200Y-80197322D01*
X137347990Y-80391726D01*
X137408817Y-80578929D01*
X137477382Y-80713495D01*
X137498176Y-80754305D01*
X137613872Y-80913546D01*
X137753054Y-81052728D01*
X137912295Y-81168424D01*
X138010538Y-81218481D01*
X138088913Y-81258415D01*
X138139709Y-81306389D01*
X138156504Y-81374210D01*
X138133967Y-81440345D01*
X138088913Y-81479385D01*
X137912294Y-81569376D01*
X137824233Y-81633357D01*
X137753054Y-81685072D01*
X137753052Y-81685074D01*
X137753051Y-81685074D01*
X137613874Y-81824251D01*
X137613874Y-81824252D01*
X137613872Y-81824254D01*
X137581435Y-81868900D01*
X137498176Y-81983494D01*
X137408817Y-82158870D01*
X137347990Y-82346073D01*
X137317200Y-82540477D01*
X137317200Y-82737322D01*
X137347990Y-82931726D01*
X137408817Y-83118929D01*
X137477382Y-83253495D01*
X137498176Y-83294305D01*
X137613872Y-83453546D01*
X137753054Y-83592728D01*
X137912295Y-83708424D01*
X138010538Y-83758481D01*
X138088913Y-83798415D01*
X138139709Y-83846389D01*
X138156504Y-83914210D01*
X138133967Y-83980345D01*
X138088913Y-84019385D01*
X137912294Y-84109376D01*
X137824233Y-84173357D01*
X137753054Y-84225072D01*
X137753052Y-84225074D01*
X137753051Y-84225074D01*
X137613874Y-84364251D01*
X137613874Y-84364252D01*
X137613872Y-84364254D01*
X137581435Y-84408900D01*
X137498176Y-84523494D01*
X137408817Y-84698870D01*
X137347990Y-84886073D01*
X137317200Y-85080477D01*
X137317200Y-85277322D01*
X137347990Y-85471726D01*
X137408817Y-85658929D01*
X137477382Y-85793494D01*
X137498176Y-85834305D01*
X137613872Y-85993546D01*
X137753054Y-86132728D01*
X137912295Y-86248424D01*
X138018526Y-86302551D01*
X138088913Y-86338415D01*
X138139709Y-86386389D01*
X138156504Y-86454210D01*
X138133967Y-86520345D01*
X138088913Y-86559385D01*
X137912294Y-86649376D01*
X137821441Y-86715385D01*
X137753054Y-86765072D01*
X137753052Y-86765074D01*
X137753051Y-86765074D01*
X137613874Y-86904251D01*
X137613874Y-86904252D01*
X137613872Y-86904254D01*
X137564185Y-86972641D01*
X137498176Y-87063494D01*
X137408817Y-87238870D01*
X137347990Y-87426073D01*
X137317200Y-87620477D01*
X137317200Y-87817322D01*
X137347990Y-88011726D01*
X137408817Y-88198929D01*
X137498176Y-88374305D01*
X137613872Y-88533546D01*
X137753054Y-88672728D01*
X137912295Y-88788424D01*
X138035692Y-88851297D01*
X138088913Y-88878415D01*
X138139709Y-88926389D01*
X138156504Y-88994210D01*
X138133967Y-89060345D01*
X138088913Y-89099385D01*
X137912294Y-89189376D01*
X137821441Y-89255385D01*
X137753054Y-89305072D01*
X137753052Y-89305074D01*
X137753051Y-89305074D01*
X137613874Y-89444251D01*
X137613874Y-89444252D01*
X137613872Y-89444254D01*
X137564185Y-89512641D01*
X137498176Y-89603494D01*
X137408817Y-89778870D01*
X137347990Y-89966073D01*
X137317200Y-90160477D01*
X137317200Y-90357322D01*
X137347990Y-90551726D01*
X137408817Y-90738929D01*
X137477382Y-90873494D01*
X137498176Y-90914305D01*
X137613872Y-91073546D01*
X137753054Y-91212728D01*
X137912295Y-91328424D01*
X137976530Y-91361153D01*
X138088913Y-91418415D01*
X138139709Y-91466389D01*
X138156504Y-91534210D01*
X138133967Y-91600345D01*
X138088913Y-91639385D01*
X137912294Y-91729376D01*
X137821441Y-91795385D01*
X137753054Y-91845072D01*
X137753052Y-91845074D01*
X137753051Y-91845074D01*
X137613874Y-91984251D01*
X137613874Y-91984252D01*
X137613872Y-91984254D01*
X137564185Y-92052641D01*
X137498176Y-92143494D01*
X137408817Y-92318870D01*
X137347990Y-92506073D01*
X137317200Y-92700477D01*
X137317200Y-92897322D01*
X137347990Y-93091726D01*
X137408817Y-93278929D01*
X137477382Y-93413494D01*
X137498176Y-93454305D01*
X137613872Y-93613546D01*
X137753054Y-93752728D01*
X137912295Y-93868424D01*
X138035692Y-93931297D01*
X138088913Y-93958415D01*
X138139709Y-94006389D01*
X138156504Y-94074210D01*
X138133967Y-94140345D01*
X138088913Y-94179385D01*
X137912294Y-94269376D01*
X137821441Y-94335385D01*
X137753054Y-94385072D01*
X137753052Y-94385074D01*
X137753051Y-94385074D01*
X137613874Y-94524251D01*
X137613874Y-94524252D01*
X137613872Y-94524254D01*
X137564185Y-94592641D01*
X137498176Y-94683494D01*
X137408817Y-94858870D01*
X137347990Y-95046073D01*
X137317200Y-95240477D01*
X137317200Y-95437322D01*
X137347990Y-95631726D01*
X137408817Y-95818929D01*
X137477382Y-95953494D01*
X137498176Y-95994305D01*
X137613872Y-96153546D01*
X137753054Y-96292728D01*
X137912295Y-96408424D01*
X138000309Y-96453269D01*
X138088913Y-96498415D01*
X138139709Y-96546389D01*
X138156504Y-96614210D01*
X138133967Y-96680345D01*
X138088913Y-96719385D01*
X137912294Y-96809376D01*
X137821441Y-96875385D01*
X137753054Y-96925072D01*
X137753052Y-96925074D01*
X137753051Y-96925074D01*
X137613874Y-97064251D01*
X137613874Y-97064252D01*
X137613872Y-97064254D01*
X137564185Y-97132641D01*
X137498176Y-97223494D01*
X137408817Y-97398870D01*
X137347990Y-97586073D01*
X137317200Y-97780477D01*
X137317200Y-97977322D01*
X137347990Y-98171726D01*
X137408817Y-98358929D01*
X137477382Y-98493494D01*
X137498176Y-98534305D01*
X137613872Y-98693546D01*
X137753054Y-98832728D01*
X137912295Y-98948424D01*
X138035692Y-99011297D01*
X138088913Y-99038415D01*
X138139709Y-99086389D01*
X138156504Y-99154210D01*
X138133967Y-99220345D01*
X138088913Y-99259385D01*
X137912294Y-99349376D01*
X137839304Y-99402407D01*
X137753054Y-99465072D01*
X137753052Y-99465074D01*
X137753051Y-99465074D01*
X137613874Y-99604251D01*
X137613874Y-99604252D01*
X137613872Y-99604254D01*
X137564185Y-99672641D01*
X137498176Y-99763494D01*
X137408817Y-99938870D01*
X137347990Y-100126073D01*
X137317200Y-100320477D01*
X137317200Y-100517322D01*
X137347990Y-100711726D01*
X137408817Y-100898929D01*
X137483704Y-101045902D01*
X137498176Y-101074305D01*
X137613872Y-101233546D01*
X137753054Y-101372728D01*
X137912295Y-101488424D01*
X138032847Y-101549848D01*
X138088913Y-101578415D01*
X138139709Y-101626389D01*
X138156504Y-101694210D01*
X138133967Y-101760345D01*
X138088913Y-101799385D01*
X137912294Y-101889376D01*
X137826598Y-101951639D01*
X137753054Y-102005072D01*
X137753052Y-102005074D01*
X137753051Y-102005074D01*
X137613874Y-102144251D01*
X137613874Y-102144252D01*
X137613872Y-102144254D01*
X137565337Y-102211056D01*
X137498176Y-102303494D01*
X137408817Y-102478870D01*
X137347990Y-102666073D01*
X137317200Y-102860477D01*
X137317200Y-103057322D01*
X137347990Y-103251726D01*
X137408817Y-103438929D01*
X137478098Y-103574900D01*
X137498176Y-103614305D01*
X137613872Y-103773546D01*
X137753054Y-103912728D01*
X137912295Y-104028424D01*
X138035692Y-104091297D01*
X138088913Y-104118415D01*
X138139709Y-104166389D01*
X138156504Y-104234210D01*
X138133967Y-104300345D01*
X138088913Y-104339385D01*
X137912294Y-104429376D01*
X137826598Y-104491639D01*
X137753054Y-104545072D01*
X137753052Y-104545074D01*
X137753051Y-104545074D01*
X137613874Y-104684251D01*
X137613874Y-104684252D01*
X137613872Y-104684254D01*
X137564185Y-104752641D01*
X137498176Y-104843494D01*
X137408817Y-105018870D01*
X137347990Y-105206073D01*
X137317200Y-105400477D01*
X137317200Y-105597322D01*
X137347990Y-105791726D01*
X137388754Y-105917181D01*
X137390749Y-105987023D01*
X137354669Y-106046856D01*
X137291968Y-106077684D01*
X137270823Y-106079500D01*
X136952097Y-106079500D01*
X136885058Y-106059815D01*
X136864416Y-106043181D01*
X128144819Y-97323584D01*
X128111334Y-97262261D01*
X128108500Y-97235903D01*
X128108500Y-78660943D01*
X128108499Y-78660939D01*
X128092363Y-78600717D01*
X128086517Y-78578900D01*
X128067577Y-78508215D01*
X128038639Y-78458095D01*
X127988520Y-78371284D01*
X127876716Y-78259480D01*
X127876715Y-78259479D01*
X127872385Y-78255149D01*
X127872374Y-78255139D01*
X124300019Y-74682784D01*
X124266534Y-74621461D01*
X124263700Y-74595103D01*
X124263700Y-72215984D01*
X124283385Y-72148945D01*
X124314809Y-72115670D01*
X124380128Y-72068214D01*
X124502614Y-71945728D01*
X124563191Y-71862350D01*
X124618521Y-71819685D01*
X124688134Y-71813706D01*
X124749929Y-71846312D01*
X124763828Y-71862351D01*
X124824167Y-71945402D01*
X124946597Y-72067832D01*
X125086675Y-72169604D01*
X125240944Y-72248208D01*
X125405615Y-72301714D01*
X125405614Y-72301714D01*
X125413199Y-72302915D01*
X125413200Y-72302914D01*
X125413200Y-71234130D01*
X125432945Y-71253875D01*
X125518455Y-71303244D01*
X125613830Y-71328800D01*
X125712570Y-71328800D01*
X125807945Y-71303244D01*
X125893455Y-71253875D01*
X125913200Y-71234130D01*
X125913200Y-72302915D01*
X125920784Y-72301714D01*
X126085455Y-72248208D01*
X126239724Y-72169604D01*
X126379798Y-72067835D01*
X126487399Y-71960234D01*
X126548722Y-71926749D01*
X126618414Y-71931733D01*
X126674348Y-71973604D01*
X126680620Y-71982819D01*
X126718144Y-72043657D01*
X126720488Y-72047456D01*
X126844544Y-72171512D01*
X126993866Y-72263614D01*
X127160403Y-72318799D01*
X127263191Y-72329300D01*
X128063208Y-72329299D01*
X128063216Y-72329298D01*
X128063219Y-72329298D01*
X128119502Y-72323548D01*
X128165997Y-72318799D01*
X128332534Y-72263614D01*
X128481856Y-72171512D01*
X128605912Y-72047456D01*
X128698014Y-71898134D01*
X128753199Y-71731597D01*
X128763700Y-71628809D01*
X128763699Y-70580589D01*
X136485700Y-70580589D01*
X136485700Y-71303811D01*
X136512798Y-71474901D01*
X136566327Y-71639645D01*
X136644968Y-71793988D01*
X136746786Y-71934128D01*
X136869272Y-72056614D01*
X137009412Y-72158432D01*
X137163755Y-72237073D01*
X137328499Y-72290602D01*
X137499589Y-72317700D01*
X137499590Y-72317700D01*
X137672810Y-72317700D01*
X137672811Y-72317700D01*
X137843901Y-72290602D01*
X138008645Y-72237073D01*
X138162988Y-72158432D01*
X138303128Y-72056614D01*
X138425614Y-71934128D01*
X138485882Y-71851175D01*
X138541212Y-71808511D01*
X138610826Y-71802532D01*
X138672621Y-71835138D01*
X138686515Y-71851173D01*
X138746786Y-71934128D01*
X138869272Y-72056614D01*
X139009412Y-72158432D01*
X139163755Y-72237073D01*
X139328499Y-72290602D01*
X139499589Y-72317700D01*
X139499590Y-72317700D01*
X139672810Y-72317700D01*
X139672811Y-72317700D01*
X139843901Y-72290602D01*
X140008645Y-72237073D01*
X140162988Y-72158432D01*
X140303128Y-72056614D01*
X140425614Y-71934128D01*
X140486191Y-71850750D01*
X140541521Y-71808085D01*
X140611134Y-71802106D01*
X140672929Y-71834712D01*
X140686828Y-71850751D01*
X140747167Y-71933802D01*
X140869597Y-72056232D01*
X141009675Y-72158004D01*
X141163944Y-72236608D01*
X141328615Y-72290114D01*
X141328614Y-72290114D01*
X141336199Y-72291315D01*
X141336200Y-72291314D01*
X141336200Y-71222530D01*
X141355945Y-71242275D01*
X141441455Y-71291644D01*
X141536830Y-71317200D01*
X141635570Y-71317200D01*
X141730945Y-71291644D01*
X141816455Y-71242275D01*
X141836200Y-71222530D01*
X141836200Y-72291315D01*
X141843784Y-72290114D01*
X142008455Y-72236608D01*
X142162724Y-72158004D01*
X142302798Y-72056235D01*
X142410399Y-71948634D01*
X142471722Y-71915149D01*
X142541414Y-71920133D01*
X142597348Y-71962004D01*
X142603618Y-71971216D01*
X142643488Y-72035856D01*
X142767544Y-72159912D01*
X142916866Y-72252014D01*
X143083403Y-72307199D01*
X143186191Y-72317700D01*
X143986208Y-72317699D01*
X143986216Y-72317698D01*
X143986219Y-72317698D01*
X144042502Y-72311948D01*
X144088997Y-72307199D01*
X144255534Y-72252014D01*
X144404856Y-72159912D01*
X144528912Y-72035856D01*
X144621014Y-71886534D01*
X144676199Y-71719997D01*
X144686700Y-71617209D01*
X144686699Y-70588389D01*
X152399500Y-70588389D01*
X152399500Y-71311611D01*
X152407677Y-71363239D01*
X152425362Y-71474901D01*
X152426598Y-71482701D01*
X152480127Y-71647445D01*
X152558768Y-71801788D01*
X152660586Y-71941928D01*
X152783072Y-72064414D01*
X152923212Y-72166232D01*
X153077555Y-72244873D01*
X153242299Y-72298402D01*
X153413389Y-72325500D01*
X153413390Y-72325500D01*
X153586610Y-72325500D01*
X153586611Y-72325500D01*
X153757701Y-72298402D01*
X153922445Y-72244873D01*
X154076788Y-72166232D01*
X154216928Y-72064414D01*
X154339414Y-71941928D01*
X154399682Y-71858975D01*
X154455012Y-71816311D01*
X154524626Y-71810332D01*
X154586421Y-71842938D01*
X154600315Y-71858973D01*
X154660586Y-71941928D01*
X154783072Y-72064414D01*
X154923212Y-72166232D01*
X155077555Y-72244873D01*
X155242299Y-72298402D01*
X155413389Y-72325500D01*
X155413390Y-72325500D01*
X155586610Y-72325500D01*
X155586611Y-72325500D01*
X155757701Y-72298402D01*
X155922445Y-72244873D01*
X156076788Y-72166232D01*
X156216928Y-72064414D01*
X156339414Y-71941928D01*
X156399991Y-71858550D01*
X156455321Y-71815885D01*
X156524934Y-71809906D01*
X156586729Y-71842512D01*
X156600628Y-71858551D01*
X156660967Y-71941602D01*
X156783397Y-72064032D01*
X156923475Y-72165804D01*
X157077744Y-72244408D01*
X157242415Y-72297914D01*
X157242414Y-72297914D01*
X157249999Y-72299115D01*
X157250000Y-72299114D01*
X157250000Y-71230330D01*
X157269745Y-71250075D01*
X157355255Y-71299444D01*
X157450630Y-71325000D01*
X157549370Y-71325000D01*
X157644745Y-71299444D01*
X157730255Y-71250075D01*
X157750000Y-71230330D01*
X157750000Y-72299115D01*
X157757584Y-72297914D01*
X157922255Y-72244408D01*
X158076524Y-72165804D01*
X158216598Y-72064035D01*
X158324199Y-71956434D01*
X158385522Y-71922949D01*
X158455214Y-71927933D01*
X158511148Y-71969804D01*
X158517420Y-71979019D01*
X158552477Y-72035857D01*
X158557288Y-72043656D01*
X158681344Y-72167712D01*
X158830666Y-72259814D01*
X158997203Y-72314999D01*
X159099991Y-72325500D01*
X159900008Y-72325499D01*
X159900016Y-72325498D01*
X159900019Y-72325498D01*
X159965607Y-72318798D01*
X160002797Y-72314999D01*
X160169334Y-72259814D01*
X160318656Y-72167712D01*
X160442712Y-72043656D01*
X160534814Y-71894334D01*
X160589999Y-71727797D01*
X160600500Y-71625009D01*
X160600499Y-70274992D01*
X160589999Y-70172203D01*
X160534814Y-70005666D01*
X160442712Y-69856344D01*
X160318656Y-69732288D01*
X160225888Y-69675069D01*
X160169336Y-69640187D01*
X160169331Y-69640185D01*
X160145792Y-69632385D01*
X160002797Y-69585001D01*
X160002795Y-69585000D01*
X159900010Y-69574500D01*
X159099998Y-69574500D01*
X159099980Y-69574501D01*
X158997203Y-69585000D01*
X158997200Y-69585001D01*
X158830668Y-69640185D01*
X158830663Y-69640187D01*
X158681342Y-69732289D01*
X158557289Y-69856342D01*
X158517420Y-69920981D01*
X158465472Y-69967705D01*
X158396509Y-69978928D01*
X158332427Y-69951084D01*
X158324200Y-69943565D01*
X158216602Y-69835967D01*
X158076524Y-69734195D01*
X157922257Y-69655591D01*
X157757589Y-69602087D01*
X157757581Y-69602085D01*
X157750000Y-69600884D01*
X157750000Y-70669670D01*
X157730255Y-70649925D01*
X157644745Y-70600556D01*
X157549370Y-70575000D01*
X157450630Y-70575000D01*
X157355255Y-70600556D01*
X157269745Y-70649925D01*
X157250000Y-70669670D01*
X157250000Y-69600884D01*
X157249999Y-69600884D01*
X157242418Y-69602085D01*
X157242410Y-69602087D01*
X157077742Y-69655591D01*
X156923475Y-69734195D01*
X156783397Y-69835967D01*
X156660965Y-69958399D01*
X156660961Y-69958404D01*
X156600627Y-70041448D01*
X156545297Y-70084114D01*
X156475684Y-70090093D01*
X156413889Y-70057488D01*
X156399991Y-70041449D01*
X156399990Y-70041448D01*
X156339414Y-69958072D01*
X156216928Y-69835586D01*
X156076788Y-69733768D01*
X155922445Y-69655127D01*
X155757701Y-69601598D01*
X155757699Y-69601597D01*
X155757698Y-69601597D01*
X155626271Y-69580781D01*
X155586611Y-69574500D01*
X155413389Y-69574500D01*
X155373728Y-69580781D01*
X155242302Y-69601597D01*
X155077552Y-69655128D01*
X154923211Y-69733768D01*
X154843256Y-69791859D01*
X154783072Y-69835586D01*
X154783070Y-69835588D01*
X154783069Y-69835588D01*
X154660588Y-69958069D01*
X154660581Y-69958078D01*
X154600317Y-70041023D01*
X154544987Y-70083689D01*
X154475374Y-70089667D01*
X154413579Y-70057061D01*
X154399683Y-70041023D01*
X154342173Y-69961870D01*
X154339414Y-69958072D01*
X154216928Y-69835586D01*
X154076788Y-69733768D01*
X153922445Y-69655127D01*
X153757701Y-69601598D01*
X153757699Y-69601597D01*
X153757698Y-69601597D01*
X153626271Y-69580781D01*
X153586611Y-69574500D01*
X153413389Y-69574500D01*
X153373728Y-69580781D01*
X153242302Y-69601597D01*
X153077552Y-69655128D01*
X152923211Y-69733768D01*
X152843256Y-69791859D01*
X152783072Y-69835586D01*
X152783070Y-69835588D01*
X152783069Y-69835588D01*
X152660588Y-69958069D01*
X152660588Y-69958070D01*
X152660586Y-69958072D01*
X152616859Y-70018256D01*
X152558768Y-70098211D01*
X152480128Y-70252552D01*
X152426597Y-70417302D01*
X152402856Y-70567200D01*
X152399500Y-70588389D01*
X144686699Y-70588389D01*
X144686699Y-70267192D01*
X144676199Y-70164403D01*
X144621014Y-69997866D01*
X144528912Y-69848544D01*
X144404856Y-69724488D01*
X144279759Y-69647328D01*
X144255536Y-69632387D01*
X144255531Y-69632385D01*
X144175565Y-69605887D01*
X144088997Y-69577201D01*
X144088995Y-69577200D01*
X143986210Y-69566700D01*
X143186198Y-69566700D01*
X143186180Y-69566701D01*
X143083403Y-69577200D01*
X143083400Y-69577201D01*
X142916868Y-69632385D01*
X142916863Y-69632387D01*
X142767542Y-69724489D01*
X142643489Y-69848542D01*
X142603620Y-69913181D01*
X142551672Y-69959905D01*
X142482709Y-69971128D01*
X142418627Y-69943284D01*
X142410400Y-69935765D01*
X142302802Y-69828167D01*
X142162724Y-69726395D01*
X142008457Y-69647791D01*
X141843789Y-69594287D01*
X141843781Y-69594285D01*
X141836200Y-69593084D01*
X141836200Y-70661870D01*
X141816455Y-70642125D01*
X141730945Y-70592756D01*
X141635570Y-70567200D01*
X141536830Y-70567200D01*
X141441455Y-70592756D01*
X141355945Y-70642125D01*
X141336200Y-70661870D01*
X141336200Y-69593084D01*
X141336199Y-69593084D01*
X141328618Y-69594285D01*
X141328610Y-69594287D01*
X141163942Y-69647791D01*
X141009675Y-69726395D01*
X140869597Y-69828167D01*
X140747165Y-69950599D01*
X140747161Y-69950604D01*
X140686827Y-70033648D01*
X140631497Y-70076314D01*
X140561884Y-70082293D01*
X140500089Y-70049688D01*
X140486191Y-70033649D01*
X140486190Y-70033648D01*
X140425614Y-69950272D01*
X140303128Y-69827786D01*
X140162988Y-69725968D01*
X140031413Y-69658928D01*
X140008647Y-69647328D01*
X140008646Y-69647327D01*
X140008645Y-69647327D01*
X139843901Y-69593798D01*
X139843899Y-69593797D01*
X139843898Y-69593797D01*
X139712471Y-69572981D01*
X139672811Y-69566700D01*
X139499589Y-69566700D01*
X139459928Y-69572981D01*
X139328502Y-69593797D01*
X139328499Y-69593798D01*
X139174038Y-69643986D01*
X139163752Y-69647328D01*
X139009411Y-69725968D01*
X138992858Y-69737995D01*
X138869272Y-69827786D01*
X138869270Y-69827788D01*
X138869269Y-69827788D01*
X138746788Y-69950269D01*
X138746781Y-69950278D01*
X138686517Y-70033223D01*
X138631187Y-70075889D01*
X138561574Y-70081867D01*
X138499779Y-70049261D01*
X138485883Y-70033223D01*
X138434283Y-69962204D01*
X138425614Y-69950272D01*
X138303128Y-69827786D01*
X138162988Y-69725968D01*
X138031413Y-69658928D01*
X138008647Y-69647328D01*
X138008646Y-69647327D01*
X138008645Y-69647327D01*
X137843901Y-69593798D01*
X137843899Y-69593797D01*
X137843898Y-69593797D01*
X137712471Y-69572981D01*
X137672811Y-69566700D01*
X137499589Y-69566700D01*
X137459928Y-69572981D01*
X137328502Y-69593797D01*
X137328499Y-69593798D01*
X137174038Y-69643986D01*
X137163752Y-69647328D01*
X137009411Y-69725968D01*
X136992858Y-69737995D01*
X136869272Y-69827786D01*
X136869270Y-69827788D01*
X136869269Y-69827788D01*
X136746788Y-69950269D01*
X136746788Y-69950270D01*
X136746786Y-69950272D01*
X136712209Y-69997863D01*
X136644968Y-70090411D01*
X136566328Y-70244752D01*
X136512797Y-70409502D01*
X136510960Y-70421102D01*
X136485700Y-70580589D01*
X128763699Y-70580589D01*
X128763699Y-70278792D01*
X128763311Y-70274998D01*
X128753199Y-70176003D01*
X128753198Y-70176000D01*
X128749354Y-70164400D01*
X128698014Y-70009466D01*
X128605912Y-69860144D01*
X128481856Y-69736088D01*
X128356759Y-69658928D01*
X128332536Y-69643987D01*
X128332531Y-69643985D01*
X128321063Y-69640185D01*
X128165997Y-69588801D01*
X128165995Y-69588800D01*
X128063210Y-69578300D01*
X127263198Y-69578300D01*
X127263180Y-69578301D01*
X127160403Y-69588800D01*
X127160400Y-69588801D01*
X126993868Y-69643985D01*
X126993863Y-69643987D01*
X126844542Y-69736089D01*
X126720489Y-69860142D01*
X126680620Y-69924781D01*
X126628672Y-69971505D01*
X126559709Y-69982728D01*
X126495627Y-69954884D01*
X126487400Y-69947365D01*
X126379802Y-69839767D01*
X126239724Y-69737995D01*
X126085457Y-69659391D01*
X125920789Y-69605887D01*
X125920781Y-69605885D01*
X125913200Y-69604684D01*
X125913200Y-70673470D01*
X125893455Y-70653725D01*
X125807945Y-70604356D01*
X125712570Y-70578800D01*
X125613830Y-70578800D01*
X125518455Y-70604356D01*
X125432945Y-70653725D01*
X125413200Y-70673470D01*
X125413200Y-69604684D01*
X125413199Y-69604684D01*
X125405618Y-69605885D01*
X125405610Y-69605887D01*
X125240942Y-69659391D01*
X125086675Y-69737995D01*
X124946597Y-69839767D01*
X124824165Y-69962199D01*
X124824161Y-69962204D01*
X124763827Y-70045248D01*
X124708497Y-70087914D01*
X124638884Y-70093893D01*
X124577089Y-70061288D01*
X124563191Y-70045249D01*
X124563190Y-70045248D01*
X124502614Y-69961872D01*
X124380128Y-69839386D01*
X124239988Y-69737568D01*
X124085645Y-69658927D01*
X123920901Y-69605398D01*
X123920899Y-69605397D01*
X123920898Y-69605397D01*
X123789471Y-69584581D01*
X123749811Y-69578300D01*
X123576589Y-69578300D01*
X123536928Y-69584581D01*
X123405502Y-69605397D01*
X123405499Y-69605398D01*
X123298437Y-69640185D01*
X123240752Y-69658928D01*
X123086411Y-69737568D01*
X123006456Y-69795659D01*
X122946272Y-69839386D01*
X122946270Y-69839388D01*
X122946269Y-69839388D01*
X122823788Y-69961869D01*
X122823781Y-69961878D01*
X122763517Y-70044823D01*
X122708187Y-70087489D01*
X122638574Y-70093467D01*
X122576779Y-70060861D01*
X122562883Y-70044823D01*
X122502855Y-69962204D01*
X122502614Y-69961872D01*
X122380128Y-69839386D01*
X122239988Y-69737568D01*
X122085645Y-69658927D01*
X121920901Y-69605398D01*
X121920899Y-69605397D01*
X121920898Y-69605397D01*
X121789471Y-69584581D01*
X121749811Y-69578300D01*
X121576589Y-69578300D01*
X121536928Y-69584581D01*
X121405502Y-69605397D01*
X121405499Y-69605398D01*
X121298437Y-69640185D01*
X121240752Y-69658928D01*
X121086411Y-69737568D01*
X121006456Y-69795659D01*
X120946272Y-69839386D01*
X120946270Y-69839388D01*
X120946269Y-69839388D01*
X120823788Y-69961869D01*
X120823788Y-69961870D01*
X120823786Y-69961872D01*
X120791970Y-70005663D01*
X120721968Y-70102011D01*
X120643328Y-70256352D01*
X120589797Y-70421102D01*
X120566658Y-70567200D01*
X120562700Y-70592189D01*
X119702700Y-70592189D01*
X119702700Y-64810300D01*
X119722385Y-64743261D01*
X119775189Y-64697506D01*
X119826700Y-64686300D01*
X163434100Y-64686300D01*
X163501139Y-64705985D01*
G37*
%TD.AperFunction*%
%TD*%
M02*
