%TF.GenerationSoftware,KiCad,Pcbnew,9.0.5*%
%TF.CreationDate,2025-12-18T14:34:49+01:00*%
%TF.ProjectId,MINT Robot,4d494e54-2052-46f6-926f-742e6b696361,rev?*%
%TF.SameCoordinates,Original*%
%TF.FileFunction,Soldermask,Top*%
%TF.FilePolarity,Negative*%
%FSLAX46Y46*%
G04 Gerber Fmt 4.6, Leading zero omitted, Abs format (unit mm)*
G04 Created by KiCad (PCBNEW 9.0.5) date 2025-12-18 14:34:49*
%MOMM*%
%LPD*%
G01*
G04 APERTURE LIST*
G04 Aperture macros list*
%AMRoundRect*
0 Rectangle with rounded corners*
0 $1 Rounding radius*
0 $2 $3 $4 $5 $6 $7 $8 $9 X,Y pos of 4 corners*
0 Add a 4 corners polygon primitive as box body*
4,1,4,$2,$3,$4,$5,$6,$7,$8,$9,$2,$3,0*
0 Add four circle primitives for the rounded corners*
1,1,$1+$1,$2,$3*
1,1,$1+$1,$4,$5*
1,1,$1+$1,$6,$7*
1,1,$1+$1,$8,$9*
0 Add four rect primitives between the rounded corners*
20,1,$1+$1,$2,$3,$4,$5,0*
20,1,$1+$1,$4,$5,$6,$7,0*
20,1,$1+$1,$6,$7,$8,$9,0*
20,1,$1+$1,$8,$9,$2,$3,0*%
G04 Aperture macros list end*
%ADD10R,1.500000X1.500000*%
%ADD11C,1.500000*%
%ADD12RoundRect,0.250000X-0.325000X-0.650000X0.325000X-0.650000X0.325000X0.650000X-0.325000X0.650000X0*%
%ADD13R,1.700000X1.700000*%
%ADD14C,1.700000*%
%ADD15RoundRect,0.250000X-0.350000X-0.625000X0.350000X-0.625000X0.350000X0.625000X-0.350000X0.625000X0*%
%ADD16O,1.200000X1.750000*%
%ADD17RoundRect,0.250000X-0.300000X0.300000X-0.300000X-0.300000X0.300000X-0.300000X0.300000X0.300000X0*%
%ADD18RoundRect,0.250000X0.350000X0.625000X-0.350000X0.625000X-0.350000X-0.625000X0.350000X-0.625000X0*%
%ADD19RoundRect,0.250000X-0.625000X0.312500X-0.625000X-0.312500X0.625000X-0.312500X0.625000X0.312500X0*%
%ADD20RoundRect,0.250000X0.300000X-0.300000X0.300000X0.300000X-0.300000X0.300000X-0.300000X-0.300000X0*%
%ADD21RoundRect,0.250000X-1.075000X0.375000X-1.075000X-0.375000X1.075000X-0.375000X1.075000X0.375000X0*%
%ADD22RoundRect,0.250000X0.625000X-0.312500X0.625000X0.312500X-0.625000X0.312500X-0.625000X-0.312500X0*%
%ADD23RoundRect,0.075000X0.075000X-0.362500X0.075000X0.362500X-0.075000X0.362500X-0.075000X-0.362500X0*%
%ADD24R,2.700000X1.250000*%
%ADD25RoundRect,0.250000X-0.650000X0.325000X-0.650000X-0.325000X0.650000X-0.325000X0.650000X0.325000X0*%
%ADD26RoundRect,0.250000X0.650000X-0.325000X0.650000X0.325000X-0.650000X0.325000X-0.650000X-0.325000X0*%
%ADD27RoundRect,0.250000X0.325000X0.650000X-0.325000X0.650000X-0.325000X-0.650000X0.325000X-0.650000X0*%
%ADD28RoundRect,0.250000X1.075000X-0.375000X1.075000X0.375000X-1.075000X0.375000X-1.075000X-0.375000X0*%
%ADD29RoundRect,0.075000X-0.075000X0.362500X-0.075000X-0.362500X0.075000X-0.362500X0.075000X0.362500X0*%
G04 APERTURE END LIST*
D10*
%TO.C,J1*%
X144267700Y-78828900D03*
D11*
X140467700Y-78828900D03*
X142367700Y-80098900D03*
X138567700Y-80098900D03*
X144267700Y-81368900D03*
X140467700Y-81368900D03*
X142367700Y-82638900D03*
X138567700Y-82638900D03*
X144267700Y-83908900D03*
X140467700Y-83908900D03*
X142367700Y-85178900D03*
X138567700Y-85178900D03*
X144267700Y-86448900D03*
X140467700Y-86448900D03*
X142367700Y-87718900D03*
X138567700Y-87718900D03*
X144267700Y-88988900D03*
X140467700Y-88988900D03*
X142367700Y-90258900D03*
X138567700Y-90258900D03*
X144267700Y-91528900D03*
X140467700Y-91528900D03*
X142367700Y-92798900D03*
X138567700Y-92798900D03*
X144267700Y-94068900D03*
X140467700Y-94068900D03*
X142367700Y-95338900D03*
X138567700Y-95338900D03*
X144267700Y-96608900D03*
X140467700Y-96608900D03*
X142367700Y-97878900D03*
X138567700Y-97878900D03*
X144267700Y-99148900D03*
X140467700Y-99148900D03*
X142367700Y-100418900D03*
X138567700Y-100418900D03*
X144267700Y-101688900D03*
X140467700Y-101688900D03*
X142367700Y-102958900D03*
X138567700Y-102958900D03*
X144267700Y-104228900D03*
X140467700Y-104228900D03*
X142367700Y-105498900D03*
X138567700Y-105498900D03*
X144267700Y-106768900D03*
X140467700Y-106768900D03*
X142367700Y-108038900D03*
X138567700Y-108038900D03*
X144267700Y-109308900D03*
X140467700Y-109308900D03*
X142367700Y-110578900D03*
X138567700Y-110578900D03*
X144267700Y-111848900D03*
X140467700Y-111848900D03*
X142367700Y-113118900D03*
X138567700Y-113118900D03*
X144267700Y-114388900D03*
X140467700Y-114388900D03*
X142367700Y-115658900D03*
X138567700Y-115658900D03*
X144267700Y-116928900D03*
X140467700Y-116928900D03*
X142367700Y-118198900D03*
X138567700Y-118198900D03*
X144267700Y-119468900D03*
X140467700Y-119468900D03*
X142367700Y-120738900D03*
X138567700Y-120738900D03*
X144267700Y-122008900D03*
X140467700Y-122008900D03*
X142367700Y-123278900D03*
X138567700Y-123278900D03*
X144267700Y-124548900D03*
X140467700Y-124548900D03*
X142367700Y-125818900D03*
X138567700Y-125818900D03*
X144267700Y-127088900D03*
X140467700Y-127088900D03*
X142367700Y-128358900D03*
X138567700Y-128358900D03*
%TD*%
D12*
%TO.C,C3*%
X151968200Y-95758000D03*
X154918200Y-95758000D03*
%TD*%
D13*
%TO.C,J9*%
X161950000Y-99095400D03*
D14*
X161950000Y-101635400D03*
X161950000Y-104175400D03*
X161950000Y-106715400D03*
%TD*%
D15*
%TO.C,J4*%
X152305000Y-101117400D03*
D16*
X154305000Y-101117400D03*
%TD*%
D17*
%TO.C,D1*%
X160248600Y-89255600D03*
X160248600Y-92055600D03*
%TD*%
D15*
%TO.C,J8*%
X121663200Y-136234000D03*
D16*
X123663200Y-136234000D03*
X125663200Y-136234000D03*
X127663200Y-136234000D03*
%TD*%
D18*
%TO.C,J3*%
X143586200Y-70942200D03*
D16*
X141586200Y-70942200D03*
X139586200Y-70942200D03*
X137586200Y-70942200D03*
%TD*%
D19*
%TO.C,R5*%
X156337000Y-81661000D03*
X156337000Y-84586000D03*
%TD*%
D20*
%TO.C,D2*%
X158793600Y-120625700D03*
X158793600Y-117825700D03*
%TD*%
D15*
%TO.C,J7*%
X137614400Y-136234000D03*
D16*
X139614400Y-136234000D03*
X141614400Y-136234000D03*
X143614400Y-136234000D03*
%TD*%
D21*
%TO.C,L1*%
X149834600Y-122599800D03*
X149834600Y-125399800D03*
%TD*%
D12*
%TO.C,C1*%
X154101800Y-125320000D03*
X157051800Y-125320000D03*
%TD*%
D22*
%TO.C,R6*%
X153365200Y-84611400D03*
X153365200Y-81686400D03*
%TD*%
D23*
%TO.C,U1*%
X153903400Y-90368100D03*
X154553400Y-90368100D03*
X155203400Y-90368100D03*
X155853400Y-90368100D03*
X155853400Y-87493100D03*
X155203400Y-87493100D03*
X154553400Y-87493100D03*
X153903400Y-87493100D03*
D24*
X154878400Y-88930600D03*
%TD*%
D18*
%TO.C,J2*%
X159500000Y-70950000D03*
D16*
X157500000Y-70950000D03*
X155500000Y-70950000D03*
X153500000Y-70950000D03*
%TD*%
D12*
%TO.C,C2*%
X151939200Y-107950000D03*
X154889200Y-107950000D03*
%TD*%
D19*
%TO.C,R2*%
X154305000Y-112964500D03*
X154305000Y-115889500D03*
%TD*%
D25*
%TO.C,C5*%
X150328000Y-87481000D03*
X150328000Y-90431000D03*
%TD*%
D26*
%TO.C,C6*%
X150495000Y-119663000D03*
X150495000Y-116713000D03*
%TD*%
D15*
%TO.C,J6*%
X153514800Y-136234000D03*
D16*
X155514800Y-136234000D03*
X157514800Y-136234000D03*
X159514800Y-136234000D03*
%TD*%
D27*
%TO.C,C4*%
X156366000Y-78689200D03*
X153416000Y-78689200D03*
%TD*%
D22*
%TO.C,R3*%
X157505400Y-115868100D03*
X157505400Y-112943100D03*
%TD*%
D28*
%TO.C,L2*%
X160234000Y-86422000D03*
X160234000Y-83622000D03*
%TD*%
D29*
%TO.C,U2*%
X155621000Y-117744500D03*
X154971000Y-117744500D03*
X154321000Y-117744500D03*
X153671000Y-117744500D03*
X153671000Y-120619500D03*
X154321000Y-120619500D03*
X154971000Y-120619500D03*
X155621000Y-120619500D03*
D24*
X154646000Y-119182000D03*
%TD*%
D18*
%TO.C,J5*%
X127663200Y-70953800D03*
D16*
X125663200Y-70953800D03*
X123663200Y-70953800D03*
X121663200Y-70953800D03*
%TD*%
M02*
