%TF.GenerationSoftware,KiCad,Pcbnew,9.0.5*%
%TF.CreationDate,2025-12-18T14:34:49+01:00*%
%TF.ProjectId,MINT Robot,4d494e54-2052-46f6-926f-742e6b696361,rev?*%
%TF.SameCoordinates,Original*%
%TF.FileFunction,Soldermask,Bot*%
%TF.FilePolarity,Negative*%
%FSLAX46Y46*%
G04 Gerber Fmt 4.6, Leading zero omitted, Abs format (unit mm)*
G04 Created by KiCad (PCBNEW 9.0.5) date 2025-12-18 14:34:49*
%MOMM*%
%LPD*%
G01*
G04 APERTURE LIST*
G04 Aperture macros list*
%AMRoundRect*
0 Rectangle with rounded corners*
0 $1 Rounding radius*
0 $2 $3 $4 $5 $6 $7 $8 $9 X,Y pos of 4 corners*
0 Add a 4 corners polygon primitive as box body*
4,1,4,$2,$3,$4,$5,$6,$7,$8,$9,$2,$3,0*
0 Add four circle primitives for the rounded corners*
1,1,$1+$1,$2,$3*
1,1,$1+$1,$4,$5*
1,1,$1+$1,$6,$7*
1,1,$1+$1,$8,$9*
0 Add four rect primitives between the rounded corners*
20,1,$1+$1,$2,$3,$4,$5,0*
20,1,$1+$1,$4,$5,$6,$7,0*
20,1,$1+$1,$6,$7,$8,$9,0*
20,1,$1+$1,$8,$9,$2,$3,0*%
G04 Aperture macros list end*
%ADD10R,1.500000X1.500000*%
%ADD11C,1.500000*%
%ADD12R,1.700000X1.700000*%
%ADD13C,1.700000*%
%ADD14RoundRect,0.250000X-0.350000X-0.625000X0.350000X-0.625000X0.350000X0.625000X-0.350000X0.625000X0*%
%ADD15O,1.200000X1.750000*%
%ADD16RoundRect,0.250000X0.350000X0.625000X-0.350000X0.625000X-0.350000X-0.625000X0.350000X-0.625000X0*%
G04 APERTURE END LIST*
D10*
%TO.C,J1*%
X144267700Y-78828900D03*
D11*
X140467700Y-78828900D03*
X142367700Y-80098900D03*
X138567700Y-80098900D03*
X144267700Y-81368900D03*
X140467700Y-81368900D03*
X142367700Y-82638900D03*
X138567700Y-82638900D03*
X144267700Y-83908900D03*
X140467700Y-83908900D03*
X142367700Y-85178900D03*
X138567700Y-85178900D03*
X144267700Y-86448900D03*
X140467700Y-86448900D03*
X142367700Y-87718900D03*
X138567700Y-87718900D03*
X144267700Y-88988900D03*
X140467700Y-88988900D03*
X142367700Y-90258900D03*
X138567700Y-90258900D03*
X144267700Y-91528900D03*
X140467700Y-91528900D03*
X142367700Y-92798900D03*
X138567700Y-92798900D03*
X144267700Y-94068900D03*
X140467700Y-94068900D03*
X142367700Y-95338900D03*
X138567700Y-95338900D03*
X144267700Y-96608900D03*
X140467700Y-96608900D03*
X142367700Y-97878900D03*
X138567700Y-97878900D03*
X144267700Y-99148900D03*
X140467700Y-99148900D03*
X142367700Y-100418900D03*
X138567700Y-100418900D03*
X144267700Y-101688900D03*
X140467700Y-101688900D03*
X142367700Y-102958900D03*
X138567700Y-102958900D03*
X144267700Y-104228900D03*
X140467700Y-104228900D03*
X142367700Y-105498900D03*
X138567700Y-105498900D03*
X144267700Y-106768900D03*
X140467700Y-106768900D03*
X142367700Y-108038900D03*
X138567700Y-108038900D03*
X144267700Y-109308900D03*
X140467700Y-109308900D03*
X142367700Y-110578900D03*
X138567700Y-110578900D03*
X144267700Y-111848900D03*
X140467700Y-111848900D03*
X142367700Y-113118900D03*
X138567700Y-113118900D03*
X144267700Y-114388900D03*
X140467700Y-114388900D03*
X142367700Y-115658900D03*
X138567700Y-115658900D03*
X144267700Y-116928900D03*
X140467700Y-116928900D03*
X142367700Y-118198900D03*
X138567700Y-118198900D03*
X144267700Y-119468900D03*
X140467700Y-119468900D03*
X142367700Y-120738900D03*
X138567700Y-120738900D03*
X144267700Y-122008900D03*
X140467700Y-122008900D03*
X142367700Y-123278900D03*
X138567700Y-123278900D03*
X144267700Y-124548900D03*
X140467700Y-124548900D03*
X142367700Y-125818900D03*
X138567700Y-125818900D03*
X144267700Y-127088900D03*
X140467700Y-127088900D03*
X142367700Y-128358900D03*
X138567700Y-128358900D03*
%TD*%
D12*
%TO.C,J9*%
X161950000Y-99095400D03*
D13*
X161950000Y-101635400D03*
X161950000Y-104175400D03*
X161950000Y-106715400D03*
%TD*%
D14*
%TO.C,J4*%
X152305000Y-101117400D03*
D15*
X154305000Y-101117400D03*
%TD*%
D14*
%TO.C,J8*%
X121663200Y-136234000D03*
D15*
X123663200Y-136234000D03*
X125663200Y-136234000D03*
X127663200Y-136234000D03*
%TD*%
D16*
%TO.C,J3*%
X143586200Y-70942200D03*
D15*
X141586200Y-70942200D03*
X139586200Y-70942200D03*
X137586200Y-70942200D03*
%TD*%
D14*
%TO.C,J7*%
X137614400Y-136234000D03*
D15*
X139614400Y-136234000D03*
X141614400Y-136234000D03*
X143614400Y-136234000D03*
%TD*%
D16*
%TO.C,J2*%
X159500000Y-70950000D03*
D15*
X157500000Y-70950000D03*
X155500000Y-70950000D03*
X153500000Y-70950000D03*
%TD*%
D14*
%TO.C,J6*%
X153514800Y-136234000D03*
D15*
X155514800Y-136234000D03*
X157514800Y-136234000D03*
X159514800Y-136234000D03*
%TD*%
D16*
%TO.C,J5*%
X127663200Y-70953800D03*
D15*
X125663200Y-70953800D03*
X123663200Y-70953800D03*
X121663200Y-70953800D03*
%TD*%
M02*
